<svg xmlns="http://www.w3.org/2000/svg" xmlns:xlink="http://www.w3.org/1999/xlink" viewBox="0 0 395 395"><defs><style>.cls-1{fill:url(#Unbenannter_Verlauf_3);}.cls-2{fill:#fff;}</style><linearGradient id="Unbenannter_Verlauf_3" y1="197.5" x2="395" y2="197.5" gradientUnits="userSpaceOnUse"><stop offset="0.01" stop-color="#0071bc"/><stop offset="0.53" stop-color="#1792d1"/><stop offset="0.99" stop-color="#29abe2"/></linearGradient></defs><title>logo</title><g id="Ebene_2" data-name="Ebene 2"><g id="Ebene_1-2" data-name="Ebene 1"><circle class="cls-1" cx="197.5" cy="197.5" r="197.5"/><path class="cls-2" d="M353.29,281.23v6c-9.49,5.22-19.84,7.09-30.82,8.34,5-17.33,1.34-31.51-13.49-41.61a32.54,32.54,0,0,0-38.34,1.15c-14,10.77-17.28,24.92-11.23,41.6L135.23,295c1.29-.92,2.55-1.9,3.78-2.92a67.93,67.93,0,0,0,18.15-23.53q6.54-13.85,6.54-31.62,0-15-5-26.06a64,64,0,0,0-13.08-19.12,86.69,86.69,0,0,0-8.58-7.51h7.23c6.79.46,13.64.48,20.36,1.45,21.11,3.06,39.31,13,56.61,24.82,4.61,3.16,8.56,5.7,15.24,5.14,11.33-.94,22.95.43,34.35,1.67,22.56,2.46,44.62,7.15,65.38,16.77,1.5.7,3,1.48,4.49,2.15,5.23,2.33,9.78,5,7.9,12.1a7.28,7.28,0,0,0,.87,5.32c5,7.51,2.21,15,.45,22.57-.15.65-.39,1.27-.52,1.92a7.5,7.5,0,0,0,.1,1.44Z"/><path class="cls-2" d="M263.13,282.79c.08,15.11,12.77,27.65,27.76,27.44a28.23,28.23,0,0,0,27.44-28c-.09-15.09-12.6-27.23-28-27.17S263,267.24,263.13,282.79Z"/><path class="cls-2" d="M6.71,292a28.21,28.21,0,0,0,5.15,3.93c.87.56,1.82,1.13,2.86,1.73A93.07,93.07,0,0,0,29,304.08a128.71,128.71,0,0,0,19.32,5.27c1.67.33,3.38.62,5.12.88h0a126.07,126.07,0,0,0,18.39,1.27,113.79,113.79,0,0,0,33.87-4.88A80.06,80.06,0,0,0,129.23,295c1.29-.92,2.55-1.9,3.78-2.92a67.93,67.93,0,0,0,18.15-23.53q6.54-13.85,6.54-31.62,0-15-5-26.06a64,64,0,0,0-13.08-19.12,86.69,86.69,0,0,0-8.58-7.51,91.65,91.65,0,0,0-9.86-6.55q-10.35-6-21.08-10.93T79,156.9a115.83,115.83,0,0,1-18.44-10.73,50,50,0,0,1-13-13.47q-4.89-7.62-4.88-18.15a36.81,36.81,0,0,1,2.54-13.67,29.71,29.71,0,0,1,7.61-11.12,37.48,37.48,0,0,1,12.88-7.52,54,54,0,0,1,18.35-2.83,68.66,68.66,0,0,1,20.4,2.83,98.57,98.57,0,0,1,15.71,6.25c4.42,2.28,8.17,4.33,11.22,6.15s5.3,2.73,6.74,2.73l1.07-30.16c-1.24-1.23-3.8-2.86-7.71-4.88a89,89,0,0,0-13.37-5.46,115.18,115.18,0,0,0-16-3.91A100,100,0,0,0,85.28,51.5a102.54,102.54,0,0,0-30.55,4.39,71.69,71.69,0,0,0-24.4,12.78,58.1,58.1,0,0,0-16,20.79q-5.76,12.41-5.76,28.21,0,15.42,5,26.45a65.94,65.94,0,0,0,13,19.22,88.16,88.16,0,0,0,18.15,14.25,226.05,226.05,0,0,0,20.89,11l1.52.71,19.46,9a114,114,0,0,1,18.25,10.54,49.28,49.28,0,0,1,12.88,13.37q4.88,7.62,4.88,18.35a42.85,42.85,0,0,1-3.51,17.76,35.78,35.78,0,0,1-10,13.18,47.27,47.27,0,0,1-15.62,8.3,61.9,61.9,0,0,1-15,2.76c-1.64.11-3.32.16-5,.16H72a84.38,84.38,0,0,1-24.06-3.4,126.46,126.46,0,0,1-18.84-7.32,121.77,121.77,0,0,1-12.78-7.22q-.74-.5-1.41-.9-3.78-2.31-6.07-2.41H8.57Z"/></g></g></svg>