<svg id="Ebene_1" data-name="Ebene 1" xmlns="http://www.w3.org/2000/svg" xmlns:xlink="http://www.w3.org/1999/xlink" viewBox="0 0 1838.18 973.1"><defs><style>.cls-3{letter-spacing:0}.cls-10{fill:#fff}</style><linearGradient id="Unbenannter_Verlauf_3" x1="364.29" y1="775.6" x2="759.29" y2="775.6" gradientUnits="userSpaceOnUse"><stop offset=".01" stop-color="#0071bc"/><stop offset=".53" stop-color="#1792d1"/><stop offset=".99" stop-color="#29abe2"/></linearGradient><linearGradient id="Unbenannter_Verlauf_6" x1="1218.29" y1="775.6" x2="1613.29" y2="775.6" xlink:href="#Unbenannter_Verlauf_3"/><linearGradient id="Unbenannter_Verlauf_4" x1="781.29" y1="775.6" x2="1176.29" y2="775.6" gradientUnits="userSpaceOnUse"><stop offset="0" stop-color="#29abe2"/><stop offset="1" stop-color="#0071bc"/></linearGradient></defs><text transform="translate(53.45 18.92)" font-size="12" font-family="MyriadPro-Regular,Myriad Pro"><tspan letter-spacing=".02em">K<tspan class="cls-3" x="6.7" y="0">ai </tspan><tspan x="17.83" y="0" letter-spacing=".01em">S</tspan><tspan class="cls-3" x="23.82" y="0">eidl</tspan></tspan><tspan x="-35.95" y="14.4">KFZ </tspan><tspan x="-14.42" y="14.4" letter-spacing="0">S</tspan><tspan x="-8.47" y="14.4">ac</tspan><tspan x="2.69" y="14.4" letter-spacing="-.01em">h</tspan><tspan x="9.2" y="14.4" letter-spacing="-.01em">v</tspan><tspan class="cls-3" x="14.85" y="14.4">erstaendiger</tspan></text><path d="M459.45 100.24c14.46 1.43 29.16 1.34 43.57 3.11.58.08.58-.85 0-.92-14.41-1.78-29.11-1.68-43.57-3.11-.59-.06-.58.86 0 .92z" transform="translate(-10.71 -20.9)"/><path d="M476.44 101.78c16.13 4.06 32.87.6 49 4.28.58.13.83-.76.25-.89-16.15-3.68-32.88-.22-49-4.28-.58-.14-.82.75-.25.89z" transform="translate(-10.71 -20.9)"/><path d="M512 105.69c7.52-.15 16.28 3.45 22.14 8.19s8.21 10.47 11.3 16.86c.26.53 1.06.07.8-.46-3.24-6.7-6-13-12.19-17.68-6-4.52-14.54-8-22.05-7.84a.47.47 0 0 0 0 .93z" transform="translate(-10.71 -20.9)"/><path d="M544.24 129c-.38 0 4.2 9.54 4.53 10a30.37 30.37 0 0 0 6.8 7.1 40.58 40.58 0 0 0 19 7.39c.59.07.59-.85 0-.92C561.22 151 548 142.25 545 128.48a.45.45 0 0 0-.44-.34h-.32c-.58-.07-.58.85 0 .92z" transform="translate(-10.71 -20.9)"/><path d="M569.4 153.9c11.52 4.21 26 4.69 38 2.72.58-.09.33-1-.25-.89-11.79 1.94-26.2 1.4-37.48-2.72-.56-.2-.8.69-.25.89z" transform="translate(-10.71 -20.9)"/><path d="M597.8 157c6 1.12 12 1 18 1.57.59.06.59-.87 0-.92-5.93-.52-11.9-.43-17.77-1.54-.58-.11-.83.78-.24.89z" transform="translate(-10.71 -20.9)"/><path d="M603.24 157c8.42 1.31 16.81 2.07 25.3 2.76a107.87 107.87 0 0 1 13.46 1.58c3.59.75 14.6 4.08 8.52 10.46-.41.43.24 1.08.65.65 5.84-6.13-3-10.71-8.38-11.89-12.8-2.78-26.32-2.43-39.27-4.44-.58-.09-.83.8-.25.89z" transform="translate(-10.71 -20.9)"/><path d="M646.92 163.41c5 8.44 6.14 17 5.38 26.61 0 .59.88.59.92 0 .78-9.73-.45-18.51-5.5-27.07a.46.46 0 0 0-.8.46z" transform="translate(-10.71 -20.9)"/><path d="M644.2 160.3a53.88 53.88 0 0 1 7.74 14c1.29 3.53 4.52 11.46 2.37 15.09a.46.46 0 0 0 .8.46c2-3.37-.19-9.32-1.21-12.62a55.74 55.74 0 0 0-8.91-17.4c-.35-.47-1.15 0-.79.46z" transform="translate(-10.71 -20.9)"/><path d="M653.08 188.07c-.15 6.58-3.39 11.58-6.16 17.27-.26.54.54 1 .8.47 2.83-5.84 6.13-11 6.28-17.74 0-.59-.91-.59-.92 0zm-44.66-11.35h-.29c-.6 0-.58.87 0 .92 5.59.44 11.34 5.64 15.72 8.77 3.32 2.37 10.19 6.38 11.35 10.73a.46.46 0 0 0 .89-.24c-1.19-4.46-7.56-8.26-11.12-10.82-3.14-2.26-6.28-4.57-9.62-6.54-1.25-.74-2.78-1.92-4.19-2.2-4.67-.91 1.22.39-2.74.3a.46.46 0 0 0 0-.92z" transform="translate(-10.71 -20.9)"/><path d="M623.2 185.42c1.42.17 4.14 8.18 4.79 9.64 1.66 3.75 3.81 7.53 4.09 11.68 0 .59 1 .6.92 0-.31-4.55-2.71-8.76-4.53-12.86-.91-2-2.82-9.09-5.27-9.38-.59-.07-.58.85 0 .92zm-9.2-7.13c-2.8-.74-5.22-1.72-8.17-1.62s-5.92 1-8.81 1.67c-2.39.53-7.34 1.23-7.72 4.29-.07.59.85.58.92 0 .36-2.9 8.06-3.6 10.07-4.06 5.19-1.2 8.39-.74 13.47.61a.46.46 0 0 0 .24-.89z" transform="translate(-10.71 -20.9)"/><path d="M602.85 177.52a68.74 68.74 0 0 0-18.24 8.07c-2.39 1.48-6.12 3.15-6.21 6.37a.46.46 0 0 0 .92 0c.09-3.36 6.79-6.31 9.29-7.71a64.13 64.13 0 0 1 14.49-5.85.46.46 0 0 0-.25-.88z" transform="translate(-10.71 -20.9)"/><path d="M590.2 184.25c-3.4 3.2-6.85 6.46-9.2 10.56-1.53 2.68-3.71 6.16-3 9.33.13.58 1 .34.89-.24-.82-3.52 2.64-8.6 4.68-11.33a60.52 60.52 0 0 1 7.26-7.67c.43-.41-.22-1.06-.66-.65z" transform="translate(-10.71 -20.9)"/><path d="M576.19 211.68c-1.85-7.14 3.81-15.94 7.69-21.58 5.23-7.61 11.72-9.64 20.6-10.26 8.16-.56 15.3 1.73 19.93 8.82 4.27 6.55 6.45 13.68 4.57 21.46-.14.58.75.82.89.25 2-8.37-.47-15.83-5.09-22.83s-12.19-9.18-20.3-8.62c-8.46.59-15.19 2.28-20.41 9.33-4.4 5.93-10.8 15.86-8.76 23.67a.46.46 0 0 0 .88-.24zm54.81-8.2c3.69 6.87 10.2 4.73 16.47 3.32.58-.13.33-1-.24-.89a56.18 56.18 0 0 1-7.9 1.52c-3.37.26-5.95-1.48-7.53-4.42-.28-.52-1.08-.06-.8.47z" transform="translate(-10.71 -20.9)"/><path d="M577.62 197.8a10.31 10.31 0 0 1 .06 1.57c-.06.53-.36.91-.45 1.42-.14.78 0 1.29-.65 1.9-1 .9-3.27 1.71-4.39.62-.43-.42-1.08.23-.66.65 1.38 1.34 3.77.73 5.19-.23a3 3 0 0 0 1.42-1.85 19.81 19.81 0 0 0 .4-4.08c0-.59-.94-.6-.92 0z" transform="translate(-10.71 -20.9)"/><path d="M576.59 201.75c-1.62 2.07-3.43 3.36-6.15 3.42-2.33.05-3.76-1-5.85-1.59a.46.46 0 0 0-.24.88c1.32.39 2.31 1.17 3.72 1.43a11.37 11.37 0 0 0 3.86.09 8.57 8.57 0 0 0 5.31-3.58c.36-.46-.28-1.12-.65-.65zm-6.67 4.92c-3.88-.51-7.79-.78-11.55-1.93a.46.46 0 0 0-.25.89c3.85 1.18 7.83 1.44 11.8 2 .58.08.58-.84 0-.92zM489 208.76c6.68 0 13.33-.06 20-.29 7.08-.25 14.47-.72 21 2.56.53.27 1-.53.47-.8-5.63-2.82-11.42-2.87-17.57-2.78-8 .12-15.92.41-23.9.39a.46.46 0 0 0 0 .92z" transform="translate(-10.71 -20.9)"/><path d="M511.45 205.91c-1.23.37-2.22.61-2.9 1.71a.47.47 0 0 0 .4.7c5.84.7 12.26-.6 18.09-1.2 3.22-.33 6.45-.68 9.68-1 1.36-.12 13.59-1.11 12.18 1.91-.25.53.55 1 .8.46l.43-.92a.5.5 0 0 0-.07-.56c-3.91-4.32-13.26-1.85-18.19-1.35-4.51.45-9 .87-13.55 1.3-1.57.15-3.12.39-4.69.49-1 .07-5 .21-1.93-.69a.46.46 0 0 0-.25-.89z" transform="translate(-10.71 -20.9)"/><path d="M515.07 206.43a.47.47 0 0 0 0-.93.47.47 0 0 0 0 .93zm4.28.77c10.83.4 21.75.17 32.53 1.19.56.05.57-.73.13-.9l-1-.41c-.55-.22-.79.67-.25.89a7 7 0 0 0-2.08-.84 31.09 31.09 0 0 0-4.32-.11c-2.72-.06-5.44-.23-8.16-.31-5.6-.17-11.21-.22-16.82-.43-.59 0-.59.9 0 .92z" transform="translate(-10.71 -20.9)"/><path d="M526.23 207.19a170.92 170.92 0 0 0 21 2.6c3.34.21 7.56.82 10.82.67 1.33-.06 1.13.67 2.06-.28.41-.42-.24-1.08-.65-.65-.57.58-3.8-.42-4.63-.48-2.83-.2-5.68 0-8.51-.24a174.11 174.11 0 0 1-19.86-2.51c-.58-.11-.83.78-.25.89zm-9.23 2.34c-3.23-2.56-7.94-.89-11.79-.68-1.57.08-18.15 2.12-18.43.88-.12-.58-1-.33-.88.25l.07.31a.42.42 0 0 0 .32.32c4.13.77 8.42-.11 12.58-.41 2.43-.18 4.87-.37 7.31-.48 2.27-.11 8.21-1.09 10.17.46.46.36 1.12-.28.65-.65zM472.44 83.82c-6.85 4.55-11.92 11.21-17 17.55-3.53 4.39-9.51 10.74-9.64 16.69 0 .59.91.59.92 0 .07-3 2.62-6.56 4.23-9.06a101.85 101.85 0 0 1 7.38-9.69c4.45-5.37 8.73-10.79 14.61-14.69.49-.33 0-1.13-.47-.8z" transform="translate(-10.71 -20.9)"/><path d="M457.11 100.33c-5.18 9.81-10.17 19.48-13.37 30.16a56.16 56.16 0 0 0-2.8 14.67c-.09 3.47-.06 9 1.78 12a.46.46 0 0 0 .79-.47c-2.64-4.37-1.92-12.23-1.09-17a84 84 0 0 1 3.32-12.45c3.13-9.29 7.61-17.82 12.17-26.46.27-.52-.52-1-.8-.46z" transform="translate(-10.71 -20.9)"/><path d="M446.93 130.12c-1.2 11.67-2.42 23.36-2.91 35.09-.22 5.28-.6 10.73-.07 16 .22 2.25.51 5.61 2.34 7.2.45.39 1.1-.26.65-.65-3.23-2.82-2.26-10.2-2.22-14 0-4.75.23-9.51.51-14.25.6-9.82 1.61-19.61 2.63-29.39.06-.59-.87-.59-.93 0z" transform="translate(-10.71 -20.9)"/><path d="M445.78 161.36c3.53 15.73 5.66 33.9 14.05 47.95a.46.46 0 0 0 .8-.47c-8.34-14-10.45-32.1-14-47.73-.13-.58-1-.33-.89.25z" transform="translate(-10.71 -20.9)"/><path d="M445.39 173c3.75 10 7.21 20.13 11.62 29.85 4.53 10 11.28 18.19 17.6 27 .34.48 1.14 0 .8-.46-6-8.36-12.47-16.14-16.89-25.49-4.76-10.08-8.32-20.76-12.24-31.19-.2-.55-1.09-.31-.89.25zm46.35 34.45c-8 .62-16.35 0-24.43 0a.46.46 0 0 0 0 .92l3.3.37c.58.11.83-.78.24-.89s-1.2-.24-1.81-.32c0 1.19.71 1.46 2.13.84 2.05.43 4.65 0 6.75 0 4.59 0 9.24.35 13.82 0 .58 0 .59-1 0-.92z" transform="translate(-10.71 -20.9)"/><path d="M488.62 207.45c-4.42 0-8.86-.06-13.27.23-3.06.19-6.87.14-9.73 1.25-.38.15-.49.79 0 .89 2.24.47 4.78.11 7.06.11a.47.47 0 0 0 0-.93 23.62 23.62 0 0 0-5 .26c1.09-.26 4.36-.4 6-.54 5-.42 10-.36 14.93-.35a.46.46 0 0 0 0-.92z" transform="translate(-10.71 -20.9)"/><path d="M488.24 208.62c-3.76 0-7.36.95-11.09 1.32-2.81.28-8.64 1.72-11.24.29-.52-.28-1 .52-.47.8 2.43 1.33 6.59.25 9.24 0 4.52-.37 9-1.46 13.56-1.52a.46.46 0 0 0 0-.92zm98.95-18.22c-3.51 2.67-6.46 3.15-8.59 7.41-2.56 5.12-3.28 11.49-2.71 17.13 1 10 11.73 16.26 20.22 19.44 10 3.72 19.37 2.29 27.48-4.35 9.34-7.65 9.31-21.23 7.76-32.25a19.88 19.88 0 0 0-16.24-17.19c-10.29-2.13-23.49-1.75-32.18 4.86-8.18 6.22-10.73 16.52-8.53 26.36 2.14 9.54 11.69 18.5 21.18 20.6 11.33 2.5 23.74-3 28.78-13.52a34.29 34.29 0 0 0 3-17.48c-.27-3.19-.72-6.42-1.21-9.58-.24-1.58-.36-2.89-1.5-4.08-.42-.43-1.07.22-.66.65 2 2 2.12 9.61 2.37 12.15a36.51 36.51 0 0 1-1.77 15c-3.22 10.18-12.91 16.38-23.38 16.47-19.3.15-34.67-24.33-22.67-40.81 6.14-8.42 16.51-10.83 26.46-10.76 8.81.06 19.69 2.66 23.68 11.41 2.14 4.71 2.16 10 2.18 15.05 0 5.44 0 10.73-2.53 15.72-5 10.09-15.91 14-26.43 12.19-8.55-1.45-20.53-7-24.06-15.59-2-5-1.49-11.55-.14-16.65.8-3 2.4-6.61 4.91-8.48 1.57-1.17 3.42-1.7 5-2.9.47-.35 0-1.15-.46-.79z" transform="translate(-10.71 -20.9)"/><path d="M620.15 187.23c3 3.68 5.45 6.9 6.25 11.7a26.28 26.28 0 0 1-1.29 13.07c-3.21 9.18-12.11 16-22 11.78-.55-.23-.78.66-.25.89 9.67 4.07 18.92-1.94 22.59-10.94a27.76 27.76 0 0 0 2.06-13.53c-.63-5.78-3.09-9.29-6.69-13.64-.38-.46-1 .2-.66.65z" transform="translate(-10.71 -20.9)"/><path d="M626.65 208c1.76 4.95 3 9.36 1.14 14.52s-4.89 9-10.55 10.26c-4.55 1-9.34.38-13.91-.05-5-.47-9.76-.86-14.12-3.47a.46.46 0 0 0-.47.8c4.5 2.69 9.48 3.1 14.59 3.59 5.54.53 12 1.4 17.27-.87 4.26-1.83 6.59-5.8 8.08-10 1.91-5.43.75-9.71-1.14-15-.2-.56-1.09-.32-.89.24z" transform="translate(-10.71 -20.9)"/><path d="M613.48 232c-7.62.85-14.34-1.1-21.54-3.51a54.63 54.63 0 0 1-10.47-4.3c-4.26-2.52-7.83-10.5-3.84-14.74.41-.43-.24-1.08-.65-.65-4.92 5.21-.33 14 5.16 16.76 9.39 4.79 20.79 8.53 31.34 7.37.58-.07.59-1 0-.93z" transform="translate(-10.71 -20.9)"/><path d="M597.47 232.87c-9.85-8.22-24.78-21.89-10.11-33.58.46-.37-.2-1-.66-.65-4.86 3.88-8 10.29-6 16.47 2.64 7.95 9.92 13.27 16.08 18.41.45.38 1.1-.27.65-.65z" transform="translate(-10.71 -20.9)"/><path d="M587 227.13c.52-1.12-4.49-6.61-5.29-8.18-2.56-5-2.06-9.25.56-14 3.2-5.85 8.22-9.74 13.92-12.95.52-.29 0-1.09-.47-.79C588.88 195 583 200 580 207.54c-3.1 7.79 2.07 14.59 7 20.34a.47.47 0 0 0 .73-.1l.09-.19c.24-.53-.55-1-.8-.46z" transform="translate(-10.71 -20.9)"/><path d="M592.32 188.84c-7.69-5.16-15.94 9.53-17.73 14.84s-2.16 11.34.3 16.61c2.6 5.58 7 7.51 12.92 7.53a.46.46 0 0 0 0-.92c-6.85 0-11.22-3.26-13.12-9.8-1.24-4.3-.61-9 .79-13.17 1.63-4.84 9.37-19 16.37-14.29.5.33 1-.47.47-.8zM468.66 210.3c6.18 1.12 12.4 1.87 18.63 2.61 3.24.39 6.48.81 9.71 1.22 3 .39 7.26.29 10.06 1.57.54.24 1-.55.47-.8-4.41-2-10.57-1.7-15.35-2.31-7.77-1-15.56-1.78-23.27-3.18-.58-.11-.83.78-.25.89z" transform="translate(-10.71 -20.9)"/><path d="M488.24 213.43c14.7 1.19 29.58 2.39 44.34 2.33a.46.46 0 0 0 0-.92c-14.76.06-29.64-1.14-44.34-2.33-.6 0-.59.87 0 .92z" transform="translate(-10.71 -20.9)"/><path d="M498.47 214.19c17.25-2.71 34.63-1.55 52-1.54a.46.46 0 0 0 0-.92c-17.46 0-34.91-1.15-52.24 1.57-.59.09-.34 1 .24.89zm22.44-3.1c8 0 16.09-.16 24.13-.27 3.85-.06 7.72-.17 11.58-.11 3.3 0 6.81 1.1 10.06.69a.47.47 0 0 0 .24-.86l-1-.69c-.49-.33-1 .46-.47.79-1.35-.9-5.8-.78-7.82-.84-4.17-.14-8.37 0-12.54.09-8 .12-16.09.27-24.13.28a.46.46 0 0 0 0 .92z" transform="translate(-10.71 -20.9)"/><path d="M541.91 210.32c6.2.54 12.33.77 18.55.76 4.79 0 9.49.35 14-1.61.54-.23.07-1-.47-.79-5.24 2.29-11.57 1.49-17.16 1.49-5 0-9.93-.34-14.89-.78-.59 0-.59.87 0 .93z" transform="translate(-10.71 -20.9)"/><path d="M559.74 212.13a71.27 71.27 0 0 0 7.07-6.72 27.56 27.56 0 0 0 2.24-2.92c.83-1.27 1.34-3.25 2.58-4.16l-.68-.28.08.26a.46.46 0 0 0 .89-.25l-.08-.25a.47.47 0 0 0-.68-.28c-2 1.48-2.86 4.62-4.43 6.56a63.44 63.44 0 0 1-7.64 7.38c-.45.4.21 1.05.65.66z" transform="translate(-10.71 -20.9)"/><path d="M560.7 208c4.64-1.37 9.33-2.52 13-5.86a26.71 26.71 0 0 0 7.56-12.36.46.46 0 0 0-.89-.24 25.56 25.56 0 0 1-7.32 12c-3.59 3.18-8.1 4.29-12.58 5.62a.46.46 0 0 0 .24.89zm67.62-12.21c1.29 1.33 1.24 3.88 2.08 5.58a14.84 14.84 0 0 0 4.16 5.14c3.56 2.82 7.52 3.45 12 3.42a.47.47 0 0 0 0-.93c-5.27 0-10.12-1.09-13.58-5.36a15 15 0 0 1-2.78-5.77 5.1 5.1 0 0 0-1.21-2.73c-.41-.43-1.06.22-.65.65z" transform="translate(-10.71 -20.9)"/><path d="M628.91 201.74c3.17 1 6.37 2.16 9.7 2.41s6.64-.91 10-1.63c.58-.12.33-1-.25-.89-3.26.7-6.37 1.83-9.75 1.6-3.22-.21-6.39-1.45-9.45-2.38a.46.46 0 0 0-.25.89z" transform="translate(-10.71 -20.9)"/><path d="M640.26 206.09l.06.32a.45.45 0 0 0 .32.32c5.61 1.12 10.68-3.48 14.39-7 .43-.41-.22-1.06-.65-.65a35.78 35.78 0 0 1-5.74 4.75c-.79.49-7.22 3.55-7.49 2.06-.11-.58-1-.33-.89.25zm13.74-8.17a61.13 61.13 0 0 0 2.73-18.4.46.46 0 0 0-.92 0 59.88 59.88 0 0 1-2.7 18.15c-.18.57.71.81.89.25z" transform="translate(-10.71 -20.9)"/><path d="M646.92 163c6.87 11.22 11.85 28.28 2 39.51-.39.44.26 1.1.65.65 10.14-11.58 5.23-29-1.87-40.62-.31-.51-1.11 0-.8.46zm-101.19-29c.85 8.56 12.36 14.2 19.2 17 10.69 4.41 21.37 7.67 33 7.94.59 0 .59-.9 0-.92-9.91-.23-18.37-2.7-27.55-6.09a85.65 85.65 0 0 1-13.15-5.82c-4.09-2.35-10.06-7-10.57-12.13-.06-.59-1-.59-.92 0z" transform="translate(-10.71 -20.9)"/><path d="M588.46 156.62c6.68.93 13.37 1.92 20.11 2.24 3.28.16 6.56.15 9.84.33 2.88.17 6.6-.16 9.34.93.55.22.79-.67.24-.88-4.38-1.76-10.93-1.12-15.58-1.19a196.22 196.22 0 0 1-23.7-2.32c-.58-.08-.83.81-.25.89z" transform="translate(-10.71 -20.9)"/><path d="M606.09 156.64c5.33.43 10.67.52 16 .83 3.68.21 12.37-.48 14.71 2.83.34.48 1.14 0 .79-.46-2-2.82-5.9-2.55-8.93-2.76-7.52-.53-15.07-.76-22.58-1.36-.59-.05-.59.87 0 .92z" transform="translate(-10.71 -20.9)"/><path d="M623.47 157.79q5.94.83 11.85 1.83c.77.13 10.46 1.71 9.66 2.94-.33.5.47 1 .79.46l.26-.39a.47.47 0 0 0 0-.46c-1.43-2.16-3.84-2.28-6.25-2.7-5.34-.93-10.69-1.82-16.07-2.57-.58-.08-.83.81-.24.89z" transform="translate(-10.71 -20.9)"/><path d="M638.44 159.62c1.55 1.89 3.86 2.89 5.76 4.39a29.38 29.38 0 0 1 2.75 2.35 5.89 5.89 0 0 0 1.69 1.5c.54.23 1-.56.47-.8-.81-.35-1.31-1.2-1.94-1.79a34.3 34.3 0 0 0-2.88-2.35c-1.74-1.33-3.79-2.24-5.2-4-.38-.45-1 .2-.65.66zM482.56 76.05c-4 1.75-6.52 4.7-9.95 7.28-2.48 1.87-5.14 3.5-7.31 5.76a77.92 77.92 0 0 0-12.92 19.09c-6.8 13.79-10.89 31.48-9.36 46.88 1.59 16.06 7.66 30.95 14.46 45.48 3.08 6.57 6 14.52 11 19.92 5.15 5.66 12.14 9.25 18.39 13.52.49.34 1-.46.46-.8-6.17-4.22-13.11-7.77-18.2-13.37-2.92-3.22-4.54-7-6.33-10.92-1.61-3.5-3.59-6.78-5.11-10.32-2.92-6.82-5.89-13.65-8.67-20.51-2.91-7.2-4.27-15.3-5.05-23-1.54-15.22 2.51-32.77 9.24-46.41A77.9 77.9 0 0 1 466 89.74c2.44-2.57 5.56-4.32 8.31-6.52 2.9-2.31 5.28-4.85 8.75-6.38.54-.24.08-1-.46-.79zm-281 80.5c8.75.7 17.65.78 26.37 1.83.38 0 .38-.56 0-.61-8.72-1-17.62-1.13-26.37-1.83-.39 0-.39.57 0 .61z" transform="translate(-10.71 -20.9)"/><path d="M210.41 157.34c10.65 2.58 21.66.39 32.3 2.82.38.09.55-.5.17-.59-10.65-2.42-21.65-.23-32.3-2.82-.38-.09-.55.5-.17.59z" transform="translate(-10.71 -20.9)"/><path d="M233.82 159.92c5.19-.11 11.52 2.52 15.37 6 3.29 3 4.79 6.59 6.67 10.48.17.35.7 0 .53-.31-2.12-4.39-3.92-8.51-7.94-11.59s-9.65-5.32-14.63-5.22a.31.31 0 0 0 0 .61z" transform="translate(-10.71 -20.9)"/><path d="M255.1 175.3c-.36-.05 2.25 5.45 2.35 5.61a20.08 20.08 0 0 0 4.52 5.2 26.69 26.69 0 0 0 13.13 5.34c.38.05.38-.56 0-.61-8.82-1.18-17.53-6.75-19.5-15.9a.32.32 0 0 0-.29-.23h-.21c-.39-.05-.38.56 0 .61z" transform="translate(-10.71 -20.9)"/><path d="M271.68 191.69c7.73 2.72 17 3.05 25 1.8.38-.06.22-.65-.16-.59-7.88 1.23-17.16.86-24.71-1.79-.37-.13-.53.45-.16.58z" transform="translate(-10.71 -20.9)"/><path d="M290.4 193.74c3.92.74 7.91.69 11.87 1 .39 0 .39-.57 0-.61-3.91-.34-7.84-.29-11.71-1-.38-.07-.55.51-.16.58z" transform="translate(-10.71 -20.9)"/><path d="M294 193.74c4.95.77 9.86 1.28 14.85 1.68 3.21.25 6.47.45 9.64 1 2.26.39 10.81 2.36 6.66 7.08-.26.29.17.72.43.43 2.94-3.35-.18-6.14-3.64-7.33s-7.49-1.32-11.14-1.63c-5.58-.47-11.1-.94-16.63-1.8-.39-.06-.55.52-.17.58z" transform="translate(-10.71 -20.9)"/><path d="M322.77 198c3.26 5.63 4.05 11.19 3.55 17.54 0 .39.58.38.61 0 .51-6.45-.33-12.15-3.63-17.85a.31.31 0 0 0-.53.31z" transform="translate(-10.71 -20.9)"/><path d="M321 195.91a36.56 36.56 0 0 1 5.1 9.24c.93 2.54 2.92 7.34 1.56 9.94-.18.34.34.65.53.3 1.26-2.42-.14-6.22-.89-8.62a37.22 37.22 0 0 0-5.78-11.17c-.23-.31-.76 0-.52.31z" transform="translate(-10.71 -20.9)"/><path d="M326.83 214.21c-.1 4.34-2.23 7.63-4.06 11.39-.17.35.35.66.53.3 1.86-3.84 4-7.24 4.14-11.69a.31.31 0 0 0-.61 0zm-29.43-7.48h-.19c-.4 0-.39.58 0 .61 3.57.28 7.13 3.48 9.93 5.47 2.3 1.65 7.1 4.36 7.91 7.38a.31.31 0 0 0 .59-.16c-.82-3.05-5.25-5.64-7.69-7.38-2.05-1.47-4.08-3-6.26-4.21a8.71 8.71 0 0 0-2.53-1.31c-4.6-.79 2.33.3-1.76.21a.31.31 0 0 0 0-.61z" transform="translate(-10.71 -20.9)"/><path d="M307.14 212.47c.93.11 2.73 5.38 3.15 6.35 1.1 2.47 2.51 5 2.7 7.7 0 .39.63.39.61 0-.21-3-1.79-5.77-3-8.48-.6-1.35-1.86-6-3.47-6.18-.39-.05-.39.56 0 .61zm-6.07-4.7a18.11 18.11 0 0 0-5.39-1.07 32.17 32.17 0 0 0-5.81 1.1c-1.57.35-4.83.81-5.08 2.83-.05.38.56.38.61 0 .23-1.91 5.31-2.38 6.63-2.68 3.42-.79 5.53-.49 8.88.4a.3.3 0 0 0 .16-.58z" transform="translate(-10.71 -20.9)"/><path d="M293.73 207.26a44.91 44.91 0 0 0-12 5.32c-1.58 1-4 2.08-4.1 4.2a.31.31 0 0 0 .61 0c.06-2.22 4.47-4.16 6.12-5.08a42.11 42.11 0 0 1 9.55-3.86.3.3 0 0 0-.16-.58z" transform="translate(-10.71 -20.9)"/><path d="M285.39 211.69a31.41 31.41 0 0 0-6.06 7c-1 1.77-2.45 4.07-2 6.16.08.38.67.22.58-.17-.54-2.32 1.75-5.66 3.09-7.46a40.1 40.1 0 0 1 4.78-5.06c.29-.27-.14-.7-.43-.43z" transform="translate(-10.71 -20.9)"/><path d="M276.16 229.77c-1-4.85 2.31-10.19 4.94-14 3.55-5.2 8.14-6.57 14.14-7 10.72-.72 18 9.81 15.71 20-.09.38.5.54.58.16 2.39-10.68-5.09-21.52-16.29-20.77-5.64.38-10.18 1.3-13.74 6-3.12 4.1-7 10.4-5.93 15.81.08.39.66.22.59-.16z" transform="translate(-10.71 -20.9)"/><path d="M312.26 224.37c2.43 4.52 6.72 3.12 10.85 2.19.39-.09.22-.68-.16-.59a37 37 0 0 1-5.2 1 5 5 0 0 1-5-2.91c-.18-.35-.7 0-.52.31zm-35.16-3.75a7.24 7.24 0 0 1 0 1c-.05.35-.24.6-.3.93-.09.52 0 .86-.43 1.25-.67.6-2.15 1.14-2.89.41-.28-.27-.71.16-.43.43.9.89 2.48.49 3.42-.15a2 2 0 0 0 .93-1.22 13.34 13.34 0 0 0 .27-2.69c0-.39-.62-.39-.61 0z" transform="translate(-10.71 -20.9)"/><path d="M276.42 223.23a5 5 0 0 1-4.05 2.25c-1.54 0-2.49-.65-3.86-1a.31.31 0 0 0-.16.59 23.88 23.88 0 0 0 2.45.94 7.74 7.74 0 0 0 2.54.06 5.68 5.68 0 0 0 3.51-2.36c.24-.31-.19-.74-.43-.43zm-4.42 3.24a46.5 46.5 0 0 1-7.61-1.27.31.31 0 0 0-.16.59 48.46 48.46 0 0 0 7.77 1.29c.39 0 .38-.56 0-.61zm-53.3 1.38c8.14 0 19.55-2.26 27 1.5.35.17.65-.35.3-.53-7.82-3.94-18.86-1.54-27.32-1.58a.31.31 0 0 0 0 .61z" transform="translate(-10.71 -20.9)"/><path d="M233.49 226a3 3 0 0 0-1.87 1.07.31.31 0 0 0 .22.52c4 .36 8.29-.42 12.32-.83.8-.09 15-1.35 14 .66-.16.35.36.66.52.31l.29-.61a.32.32 0 0 0-.05-.37c-2.34-2.59-7.43-1.33-10.39-1.05s-5.84.61-8.77.88a44 44 0 0 1-4.85.46c-.34 0-2.9 0-1.27-.45.37-.12.21-.7-.16-.59z" transform="translate(-10.71 -20.9)"/><path d="M235.87 226.31a.31.31 0 0 0 0-.61.31.31 0 0 0 0 .61zm2.82.51c7.13.26 14.35.05 21.45.79.36 0 .37-.49.08-.6l-.68-.27c-.36-.15-.52.44-.16.58-2.85-1.13-6.78-.74-9.91-.83-3.59-.11-7.18-.15-10.78-.27-.39 0-.39.59 0 .6z" transform="translate(-10.71 -20.9)"/><path d="M243.23 226.81a106.54 106.54 0 0 0 14.45 1.75c1.25.06 2.5 0 3.74.06.83 0 2.53.69 3.29.48s.26.3.86-.32c.27-.27-.16-.7-.43-.42-.56.57-7.46-.4-8.26-.45a111 111 0 0 1-13.49-1.68c-.38-.08-.55.51-.16.58zm-6.12 1.55c-2.4-1.9-19.59 1.58-19.91.13-.09-.38-.67-.22-.59.16v.21a.3.3 0 0 0 .21.21c3 .5 6.07-.11 9.08-.33 2.34-.17 8.7-1.56 10.73 0 .31.24.74-.18.43-.42zM220.49 227c-5.3.42-10.77 0-16.1 0a.3.3 0 0 0 0 .6l2.18.25c.38.07.54-.52.16-.59s-.8-.16-1.2-.21c0 .78.47 1 1.41.55a22.81 22.81 0 0 0 4.45 0c3 0 6.09.24 9.1 0 .39 0 .39-.64 0-.61z" transform="translate(-10.71 -20.9)"/><path d="M218.44 227c-2.92 0-5.84 0-8.75.15-2 .13-4.52.1-6.41.83-.25.1-.32.52 0 .59a23.29 23.29 0 0 0 4.65.07.31.31 0 0 0 0-.61 14.93 14.93 0 0 0-3.31.17c.71-.17 2.87-.27 4-.36 3.27-.28 6.56-.23 9.84-.23a.31.31 0 0 0 0-.61z" transform="translate(-10.71 -20.9)"/><path d="M218.19 227.75c-2.48 0-4.85.63-7.31.87-1.86.19-5.7 1.14-7.41.2-.34-.19-.65.34-.31.53 1.6.87 4.35.16 6.09 0 3-.25 5.95-1 8.94-1a.31.31 0 0 0 0-.61zm65.21-12c-2.18 1.45-4 2-5.44 4.39-1.72 2.92-2.2 6.91-2.1 10.24.21 7.19 6.32 11.38 12.42 13.91 6.73 2.8 13.47 2.36 19.09-2.4 6.17-5.24 6.26-14.08 5.11-21.54-2.16-14-23.65-15-32.67-7.24-11 9.51-3.6 28.28 10 30.45 7.28 1.16 14.86-2.3 18.1-9a22.82 22.82 0 0 0 2-11.86c-.25-2.73 0-6.43-1.77-8.66-.24-.31-.66.12-.43.43 1.51 1.94 1.66 7.64 1.71 9.83a21.85 21.85 0 0 1-2.7 11.18c-4.42 7.49-14.67 9.83-22.11 5.54a17.85 17.85 0 0 1-9.13-18.56c1.46-10.6 12.46-13.85 21.81-13.15a20.06 20.06 0 0 1 10.33 3.42c3.75 2.8 4.44 7.45 4.59 11.78.31 8.75-1.91 18.09-11.64 20.64-7 1.84-16.51-2.14-21.13-7.41-3.32-3.79-3.59-9.23-2.24-13.93 1.07-3.7 3.48-5.47 6.53-7.5.32-.21 0-.74-.31-.52z" transform="translate(-10.71 -20.9)"/><path d="M305.13 213.66c4.08 4.87 5.43 10.23 3.27 16.34s-8 10.3-14.51 7.76c-.36-.14-.52.45-.16.59 6.22 2.45 12.14-.95 14.7-6.77 3-6.74 1.69-12.9-2.87-18.35-.25-.3-.68.13-.43.43z" transform="translate(-10.71 -20.9)"/><path d="M309.41 227.37c2.27 6.39 1.47 14.15-6.2 16.33-5.14 1.46-14 .14-18.48-2.32-.34-.19-.65.34-.3.53 3.46 1.91 7.24 2.19 11.12 2.51 3.34.27 7.4.64 10.49-1 6.07-3.22 5.91-10.72 4-16.21-.13-.37-.72-.21-.59.16z" transform="translate(-10.71 -20.9)"/><path d="M300.73 243.13c-4.65.52-8.71-.54-13.09-1.95a38 38 0 0 1-6.51-2.47c-3.18-1.77-7.39-6.42-4-10.44.25-.3-.17-.73-.43-.43-2.63 3.15-.9 8.26 2.32 10.44a35.83 35.83 0 0 0 21.74 5.46c.38 0 .39-.65 0-.61z" transform="translate(-10.71 -20.9)"/><path d="M290.18 243.74c-6.57-5.47-16.33-14.08-6.67-22.13.3-.25-.13-.68-.43-.43-9.79 8.16-.28 17.19 6.67 23 .3.24.73-.18.43-.43z" transform="translate(-10.71 -20.9)"/><path d="M283.29 240c.45-1-2.47-3.54-3.12-4.72a9.5 9.5 0 0 1 .11-10.09c2.13-3.78 5.34-6.25 9.07-8.36.34-.19 0-.71-.31-.52-4.62 2.62-8.83 6.14-10.57 11.36-1.63 4.95 1.76 9.23 4.81 12.83a.31.31 0 0 0 .48-.06l.06-.13c.16-.35-.36-.66-.53-.31z" transform="translate(-10.71 -20.9)"/><path d="M286.78 214.72c-9-5.18-21.63 25.49-3 25.69a.31.31 0 0 0 0-.61c-8.42-.09-10.33-8.21-8.21-14.87 1.1-3.47 5.92-12.52 10.88-9.68a.3.3 0 0 0 .3-.53zm-81.49 14.14c3.86.69 7.73 1.18 11.63 1.65 4.41.53 9.55.48 13.75 1.94.37.13.52-.46.16-.58-3.09-1.08-6.81-1.09-10.05-1.5-5.12-.64-10.25-1.19-15.33-2.09-.38-.07-.55.51-.16.58z" transform="translate(-10.71 -20.9)"/><path d="M218.19 230.92c9.69.78 19.48 1.56 29.22 1.54a.3.3 0 0 0 0-.6c-9.74 0-19.53-.77-29.22-1.54-.39 0-.39.57 0 .6z" transform="translate(-10.71 -20.9)"/><path d="M224.93 231.43c11.41-1.69 22.8-1 34.27-1a.31.31 0 0 0 0-.61c-11.52 0-23-.65-34.43 1-.39.06-.22.64.16.59zm14.79-2.04c5.41 0 10.81-.11 16.22-.19 4.62-.07 9.4.63 13.95.39a.31.31 0 0 0 .11-.59l-.69-.46c-.32-.21-.63.31-.3.53-2.77-1.85-10.06-.54-13.11-.5-5.41.08-10.81.18-16.22.19a.31.31 0 0 0 0 .61z" transform="translate(-10.71 -20.9)"/><path d="M253.56 228.87c4.53.4 9 .5 13.56.51 2.75 0 5.3.06 7.87-1.06.36-.16.05-.68-.3-.52-3.24 1.41-7 1-10.47 1s-7.1-.2-10.66-.51c-.39 0-.39.57 0 .6z" transform="translate(-10.71 -20.9)"/><path d="M265.31 230.07a46.47 46.47 0 0 0 4.66-4.43 17.32 17.32 0 0 0 1.48-1.93c.54-.83.88-2.14 1.7-2.74l-.45-.18.05.17c.11.37.7.22.59-.16v-.17a.31.31 0 0 0-.45-.18c-1.32 1-1.88 3-2.92 4.32a42.19 42.19 0 0 1-5 4.87c-.29.26.14.68.43.43z" transform="translate(-10.71 -20.9)"/><path d="M266 227.32c3.05-.9 6.14-1.66 8.56-3.86a17.66 17.66 0 0 0 5-8.14.31.31 0 0 0-.59-.16 16.86 16.86 0 0 1-4.82 7.87c-2.37 2.1-5.34 2.84-8.29 3.71a.3.3 0 0 0 .16.58zm44.51-8.02c.85.88.82 2.56 1.37 3.68a9.68 9.68 0 0 0 2.74 3.38c2.35 1.86 5 2.28 7.9 2.26a.31.31 0 0 0 0-.61c-3.47 0-6.67-.72-8.95-3.54a10 10 0 0 1-1.84-3.8 3.33 3.33 0 0 0-.79-1.8c-.27-.28-.7.15-.43.43z" transform="translate(-10.71 -20.9)"/><path d="M310.9 223.22a30.19 30.19 0 0 0 6.39 1.59c2.3.18 4.38-.6 6.59-1.07.38-.09.22-.67-.16-.59-2.15.46-4.2 1.21-6.43 1.06a29.7 29.7 0 0 1-6.22-1.57.3.3 0 0 0-.17.58z" transform="translate(-10.71 -20.9)"/><path d="M318.38 226.09v.21a.3.3 0 0 0 .21.21c3.7.74 7-2.29 9.49-4.65.28-.27-.15-.7-.43-.43a23.25 23.25 0 0 1-3.79 3.14c-.51.32-4.75 2.33-4.93 1.36-.07-.39-.66-.23-.59.16zm9.05-5.39a39.93 39.93 0 0 0 1.8-12.13.3.3 0 0 0-.6 0 39.68 39.68 0 0 1-1.79 12c-.12.38.47.54.59.16z" transform="translate(-10.71 -20.9)"/><path d="M322.77 197.7c4.54 7.59 7.7 18.39 1.33 26-.25.3.18.73.43.43 6.55-7.87 3.48-18.91-1.23-26.77-.21-.34-.73 0-.53.3zm-66.68-19.04c1.08 6 8.3 9.3 13.25 11.37a58.42 58.42 0 0 0 21.14 5 .31.31 0 0 0 0-.61 51.75 51.75 0 0 1-17.67-3.84c-5.6-2.18-14.88-5.11-16.14-12.09-.06-.38-.65-.22-.58.16z" transform="translate(-10.71 -20.9)"/><path d="M284.24 193.49c4.24.59 8.49 1.23 12.77 1.45 4 .21 9.35-.66 13.12.85.37.15.53-.44.17-.58-2.79-1.12-6.69-.68-9.64-.78a158.51 158.51 0 0 1-16.26-1.53c-.38-.05-.54.53-.16.59z" transform="translate(-10.71 -20.9)"/><path d="M295.86 193.5c3.23.25 6.45.33 9.69.5 2.76.14 8.79-.21 10.6 2 .25.3.68-.13.43-.43-1.6-1.92-4.33-1.65-6.58-1.83-4.71-.37-9.43-.45-14.14-.82-.39 0-.39.58 0 .61z" transform="translate(-10.71 -20.9)"/><path d="M307.31 194.26c2.62.36 5.22.76 7.82 1.2.5.09 6.89 1.13 6.36 1.94-.22.33.31.63.52.3l.17-.25a.29.29 0 0 0 0-.31c-.94-1.42-2.53-1.5-4.11-1.78-3.53-.61-7.05-1.2-10.59-1.69-.39 0-.55.53-.17.59z" transform="translate(-10.71 -20.9)"/><path d="M317.18 195.46c1 1.24 2.55 1.91 3.8 2.89a19.09 19.09 0 0 1 1.81 1.56 3.88 3.88 0 0 0 1.12 1c.35.15.66-.37.3-.52-.53-.24-.86-.8-1.27-1.18a23.36 23.36 0 0 0-1.9-1.55 18.7 18.7 0 0 1-3.43-2.61c-.25-.3-.68.13-.43.43zm481.28-49.85c.47 2.68 8 2.16 9.74 2.2 8.12.19 16.26.34 24.38.37a.44.44 0 0 0 0-.88c-7.06 0-14.11-.36-21.17-.36-1.83 0-11.71.61-12.09-1.56-.1-.56-1-.33-.86.23z" transform="translate(-10.71 -20.9)"/><path d="M797 147.81c8.17-.16 16.31-1 24.48-1.37 3.5-.18 7.07-.57 10.57-.48-.63 0 9.55.55 5.9 2.52-.51.27-.06 1 .45.77 1.14-.62 2.37-.38 2-2-.37-1.88-5.34-2-6.55-2.07-12.09-1.08-24.77 1.52-36.89 1.76a.45.45 0 0 0 0 .89z" transform="translate(-10.71 -20.9)"/><path d="M807.12 146.69q8 .59 15.93 1.05c5.44.32 11.17.1 16.52 1.18.56.11.8-.75.24-.86-4.86-1-9.95-.82-14.89-1.1-5.93-.33-11.87-.73-17.8-1.16-.57 0-.56.84 0 .89z" transform="translate(-10.71 -20.9)"/><path d="M836.38 147.68c3.48 3 6.78 5.56 8.16 10.13 1.44 4.78.84 9.74.69 14.64a.45.45 0 0 0 .89 0c.16-5.49.85-11.11-1.23-16.35-1.58-4-4.73-6.36-7.88-9-.43-.37-1.06.26-.63.63z" transform="translate(-10.71 -20.9)"/><path d="M845.25 160c-1.1 4.56 2.42 10.64 4.6 14.58a16.2 16.2 0 0 0 5 5.78c2.19 1.5 4.51 1.34 6.73 2.6a.44.44 0 0 0 .45-.76c-1.35-.77-2.81-.81-4.25-1.35a13.78 13.78 0 0 1-6.82-6.14c-2-3.44-5.83-10.28-4.82-14.47.13-.55-.73-.79-.86-.24z" transform="translate(-10.71 -20.9)"/><path d="M859.53 179.63c7.77 1 15.89 1.91 23.5 3.81a44.39 44.39 0 0 1 10.59 4c1.59.87 2.65 1.82 4.46 1.93.57 0 .57-.85 0-.89-2.29-.14-4.9-2.33-7-3.22a53.11 53.11 0 0 0-10.42-3.26c-7-1.4-14.09-2.41-21.13-3.28-.57-.07-.56.82 0 .89z" transform="translate(-10.71 -20.9)"/><path d="M864.77 181.12c7.36.39 14.71.9 22.06 1.31q5.28.28 10.56.47c1.23 0 9.82-.47 10.37.89.21.53 1.07.3.86-.23-.52-1.27-1-.94-2.28-1.13-4.19-.61-8.58-.38-12.79-.56-9.6-.4-19.19-1.13-28.78-1.63-.57 0-.57.85 0 .88z" transform="translate(-10.71 -20.9)"/><path d="M905.08 183.73c5.41 1.38 7.95 10.28 8.1 15.05.26 7.78-4.58 14.58-12.48 15.52-.56.07-.56.95 0 .89 7.5-.89 12.37-6.26 13.28-13.75.7-5.73-2.07-16.89-8.67-18.57a.45.45 0 0 0-.23.86z" transform="translate(-10.71 -20.9)"/><path d="M870 213.69c6.41.33 12.83.46 19.24.81 3.35.18 6.59.71 9.91 1.14 1.32.17 2 .45 3.26-.14.52-.25.07-1-.44-.77-1.57.76-4.54-.3-6.28-.52-3.07-.39-6.13-.6-9.22-.71-5.5-.2-11-.42-16.47-.7-.57 0-.57.86 0 .89z" transform="translate(-10.71 -20.9)"/><path d="M884.35 213.94c-5.13-.87-10.48-.26-15.68-.51-5.41-.27-13.39.6-17.9-2.81-.46-.35-.9.42-.45.76 3.5 2.65 8.85 2.44 13 2.66 6.76.34 14.09-.37 20.75.76.56.09.8-.76.24-.86z" transform="translate(-10.71 -20.9)"/><path d="M853.54 212.43a216.2 216.2 0 0 0-24-1.18c-3.69-.05-7.38-.32-11.06-.46-1.82-.06-3.63-.12-5.45-.15l-3.63-.06a3.54 3.54 0 0 0-3.4.86.44.44 0 0 0 0-.88h-.25a.44.44 0 0 0 0 .88c7.94 0 15.86.59 23.79.7a211.47 211.47 0 0 1 24 1.18c.56.07.56-.82 0-.89zm19.16.44c-.38-3.13 2.95-5.89 5.06-7.63 3.1-2.56 6.45-4.61 10.64-4.62 4.61 0 13.32 4.81 11.87 10.64a.45.45 0 0 0 .86.23c1.37-5.49-6-11.37-11-11.8-4.69-.4-8.86 1.54-12.42 4.4-2.75 2.22-6.41 4.88-5.93 8.78.07.56 1 .57.89 0z" transform="translate(-10.71 -20.9)"/><path d="M885.36 201.42c-2.26-3.65-11.36 4.7-12.4 6.86-1.65 3.4-1.31 8.61.53 11.91 1.65 2.94 5 3 8 3.59.56.12.8-.74.24-.86-1.76-.36-4.08-.39-5.66-1.34-3-1.83-3.68-7.54-3-10.6.81-3.58 3.22-5.88 6.36-7.56.71-.38 4.48-2.65 5.16-1.55.3.48 1.07 0 .76-.45z" transform="translate(-10.71 -20.9)"/><path d="M879.89 204.25c-2.93 1.75-5.31 3.21-6.34 6.62s-1 7.51.89 10.64c3.15 5.21 11.93 6.9 16.47 2.53.41-.4-.22-1-.63-.63-4.71 4.54-13.75 1.75-15.8-4a13.34 13.34 0 0 1-.07-8.29c.94-3.08 3.3-4.51 5.93-6.08a.45.45 0 0 0-.45-.77z" transform="translate(-10.71 -20.9)"/><path d="M878 205c-.3-.06 4-2.72 4.73-2.92a13.82 13.82 0 0 1 6.3 0c5.61 1.32 9.27 6 7.68 11.88-1.08 4-2.73 8.06-7 9.51-3.46 1.17-8.74 1.27-11.48-1.46a.44.44 0 0 0-.62.62c3.4 3.41 10.15 3.08 14.21 1s6.7-9.09 6.39-13.33c-.38-5.17-5.5-8.69-10.27-9.31-2.87-.38-10.85.28-11.14 4.36a.44.44 0 0 0 .32.43l.68.12c.56.11.8-.75.24-.85z" transform="translate(-10.71 -20.9)"/><path d="M875.3 209.25c1-5 7.16-5.7 11.34-6.36s7-.52 9.39 3.85a15.73 15.73 0 0 1 1.68 5.64 10.21 10.21 0 0 1-7.71 11.51c-4.95 1.37-9-1-13.55-2.46-.55-.18-.78.68-.24.85 6.28 2 12.1 4.88 18.15.52 4.4-3.16 5.08-8.68 3.57-13.57-1.6-5.16-4.62-8.42-10.24-7.48-4.88.82-12.14 1.5-13.28 7.26-.11.56.74.8.85.24zm-111.72-87.02l-.33.09a.45.45 0 0 0-.26.65c1 2.08 2.62 2.66 4.52 3.87a56.84 56.84 0 0 1 9.47 8.22c2.39 2.53 4 5.09 6.75 7.27 2.43 1.93 4.77 3.94 7.22 5.83 6.22 4.77 12.41 10.22 15.74 17.38 4 8.61 6.16 17.29 5 26.88-.9 7.17-2.46 16.65-9.56 20.5-6.73 3.65-15 4.92-22.52 5.45-8.3.58-16.65.36-25 .63-8.74.27-17.37 1.57-26.08 2-.57 0-.58.91 0 .88 10-.53 19.81-1.91 29.82-2.13 9.2-.21 18.49.1 27.62-1.19 5.76-.81 13-2.17 17.72-5.76 5.21-4 7.24-10 8.29-16.19 2.49-14.65-.64-31.43-12-41.76-5.83-5.29-12.77-9.79-18.24-15.38-3.2-3.27-5.87-6.58-9.33-9.69a42.27 42.27 0 0 0-3.43-3.13c-.49-.36-5.38-3.54-5.13-3.6a.45.45 0 0 0-.24-.86zm-.24-.92c-.45-1-.46-.63-1.22-1.57-3-3.7-4.16-6-2.69-11 1.31-4.45 4.2-8.28 7.47-11.51 6.39-6.3 14.34-9.08 23-10.6 18.55-3.24 37.43-2.29 56.16-2.06a.45.45 0 0 0 0-.89c-11.22-.13-22.4-.76-33.63-.07-10.84.66-21.91.82-32.27 4.47a36.72 36.72 0 0 0-19.36 15.36c-1.69 2.8-3.29 6.5-3.08 9.82a11.22 11.22 0 0 0 1.45 4.6c.8 1.36 2.84 2.61 3.41 3.92.23.52 1 .07.77-.45z" transform="translate(-10.71 -20.9)"/><path d="M797.08 146.56a5.77 5.77 0 0 0 1.48 1.22l.22-.82c-1.6-.14-3.13-.68-4.74-.79-.94-.06-3.3.14-3.75-.9-.23-.52-1-.07-.77.45.48 1.1 2.12 1.17 3.15 1.26 2.06.18 4.06.69 6.11.86a.44.44 0 0 0 .22-.84 5.32 5.32 0 0 1-1.31-1.09c-.39-.42-1 .21-.62.63zm916.69-119.08c0 5.81 1.41 11.57 1.53 17.42.12 6-.12 12.08-.21 18.12-.18 12.59-.09 25-2.57 37.43l3 .4c.34-5.14-.55-10.13-1.29-15.18-.92-6.3-1.47-12.68-2-19-1-12.48-.06-25-.58-37.45l-2.94.4c2.64 17.54 5.3 35.8 5.07 53.57 0 1.93 3 1.93 3 0 .23-18.05-2.49-36.55-5.18-54.37-.25-1.67-3-1.27-2.95.4.52 12.49-.39 25 .58 37.45.42 5.52.92 11.07 1.61 16.57.74 5.88 2 11.66 1.64 17.62-.11 1.67 2.61 2.06 2.94.4 2.41-12 2.55-24.12 2.66-36.34.06-6.35.33-12.7.24-19.06-.08-6.15-1.52-12.28-1.54-18.37a1.5 1.5 0 0 0-3 0z" transform="translate(-10.71 -20.9)"/><path d="M1745.51 29.26a4.78 4.78 0 0 0 2.3-1.45l-2.36-1.81c-3.49 5.61-7.47 10.88-11.17 16.35-2.78 4.1-4.87 10.41-8.77 13.5l2.36 1.82c3.19-6.74 5.81-13.73 10-20 1.8-2.7 5.79-10.4 9.42-10.55l-1.44-1.9c-2 5.19-7 9.78-10.46 14-3 3.64-6.18 7.2-9 11-1.91 2.56-8.2 14-12 12.64l.67 2.5.82-1.07c1.17-1.5-.94-3.64-2.12-2.12l-.83 1.07a1.53 1.53 0 0 0 .67 2.51c5.58 1.92 11.29-8.17 13.81-11.73 3.31-4.68 7.1-9 10.75-13.4s8.54-9.08 10.63-14.6a1.51 1.51 0 0 0-1.45-1.9c-4.52.19-7.86 6.05-10.16 9.34-5 7.09-8.12 14.88-11.81 22.67a1.51 1.51 0 0 0 2.36 1.81c3.86-3.06 5.57-8.56 8.22-12.6 4-6 8.37-11.74 12.18-17.86a1.5 1.5 0 0 0-2.35-1.81l-1 .67c-1.8.67-1 3.57.79 2.9z" transform="translate(-10.71 -20.9)"/><path d="M1721.27 59.25c6.08 7 12.11 14.08 19.43 19.78 3.86 3 8 5.48 11.81 8.62a95.91 95.91 0 0 0 10.49 8.08 1.5 1.5 0 0 0 1.82-2.35c-6.07-6.29-13.46-10.86-20.67-15.71a112.6 112.6 0 0 1-11.3-8.53c-3.54-3.08-9.18-7.55-10.93-12l-2.51 1.46c7.39 7.64 14.28 15.74 21.79 23.26 3.29 3.29 7.11 6 10.39 9.23 2.67 2.66 4.5 4.9 8.16 6a1.51 1.51 0 0 0 1.84-1l.19-.76c.46-1.88-2.43-2.68-2.89-.8l-.19.76 1.85-1.05c-4.36-1.37-7.27-5.83-10.7-8.69a114.65 114.65 0 0 1-9.14-8.5c-6.5-6.76-12.65-13.84-19.18-20.58-1-1-3.07 0-2.51 1.46 1.48 3.78 4.72 6.65 7.55 9.48a94.23 94.23 0 0 0 10.82 9.22c8.5 6.27 17.91 11.23 25.31 18.9l1.82-2.36c-4-2.5-7.45-5.67-11.1-8.65-3.13-2.55-6.59-4.58-9.81-7-7.69-5.76-13.91-13.18-20.19-20.36-1.27-1.46-3.39.67-2.12 2.12zm102.51-33.57c1.19-6.89-9.51-4.47-13.45-3.89a43 43 0 0 0-23.24 11.91c-3.84 3.74-11.52 10.93-6.67 16.56 2.91 3.39 8.1 4.9 12.32 6 10.39 2.62 20.83 5 31 8.48 5.36 1.84 24.26 7.42 22.08 16-2.37 9.35-18.06 10.28-25.54 10.11a148.36 148.36 0 0 1-18.08-1.9c-5.38-.79-13.86-.87-18.33-4.15-1.56-1.14-3.06 1.46-1.52 2.59 3.32 2.44 7.9 2.59 11.84 3.29 5.53 1 11.09 1.75 16.66 2.41 8 .94 16.3 1.42 24.12-.8 7.54-2.14 18.57-9.69 11.85-18.25-5.81-7.4-17.43-10.67-26-13.39-9.41-3-19-5-28.55-7.58a26.07 26.07 0 0 1-7.22-2.92c-3.91-2.51-3.55-5.16-.84-8.65a55.17 55.17 0 0 1 5.51-6.12 41.8 41.8 0 0 1 15.44-9.26c1.31-.43 16-2.91 15.7-1.18-.32 1.89 2.57 2.7 2.9.8zM979.43 152.2h.33a.4.4 0 0 0 0-.79h-.33a.4.4 0 0 0 0 .79zm-3.99 8.98a146.32 146.32 0 0 0 21.73-1.69c-.08 0 4.4-.8 4.26-1.1 0 0-5.3.46-5.73.48-3.29.18-6.59.27-9.89.38-1.6.06-8.46-.67-9.61.45-1.32 1.3 1.79.84 2.33.84 1.53 0 3.05-.11 4.57-.23 6.17-.49 12.68-.84 18.73-2.14.5-.1.29-.86-.21-.76-8.8 1.89-18.14 2-27.08 2.33a.39.39 0 0 0 0 .78c5.29-.1 10.59-.45 15.88-.64 4.06-.15 8.43.07 12.36-1.06.42-.12.36-.81-.1-.78-9.11.66-18.07 2.18-27.24 2.35a.4.4 0 0 0 0 .79zm29.28-2.66c8.09.78 12.68 10.44 9.93 17.47-.18.47.58.68.77.21 3-7.6-2.17-17.65-10.7-18.47-.5 0-.5.74 0 .79z" transform="translate(-10.71 -20.9)"/><path d="M1014 170.67c-.45 3.23.93 7.93 2.3 10.86 1.55 3.31 4.17 4.83 7.62 5.59.5.11.71-.65.21-.76-3.82-.84-6.34-2.74-7.67-6.55-.86-2.46-2.06-6.33-1.7-8.94.07-.49-.69-.71-.76-.2z" transform="translate(-10.71 -20.9)"/><path d="M1023.79 185.79c4.53-1.43 10-.64 14.67-.68 5.64-.06 11.57-.46 17.17-.09-.51 0-.51.75 0 .78h.26a.39.39 0 0 0 .11-.77c-5.66-1.28-11.77-.78-17.54-.73-4.86 0-10.18-.77-14.88.71-.48.15-.27.91.21.76z" transform="translate(-10.71 -20.9)"/><path d="M1056.52 185.79c4.75 1.05 8.06 5.43 8.64 10.05.24 1.94.17 11.24-3.21 11.47-.5 0-.51.82 0 .79 4-.27 4.31-8.8 4.11-11.6-.39-5.24-4-10.29-9.33-11.47-.49-.11-.7.65-.21.76zm-81.31 31.61c13.12-3.25 27.19-3.11 40.62-3.49 12.09-.35 24.1-1.87 36.14-2.82.5 0 .51-.83 0-.79-12.62 1-25.19 2.37-37.84 2.88-13 .51-26.42.32-39.13 3.46-.49.12-.28.88.21.76zm58.46-3.65a188.15 188.15 0 0 0 24.39-2.34c.5-.08.29-.84-.21-.76a190.26 190.26 0 0 1-24.18 2.32.39.39 0 0 0 0 .78z" transform="translate(-10.71 -20.9)"/><path d="M1023 213.36c.62 8.38 9.71 10.76 16.62 9.68 2.88-.46 14.59-5.57 11.07-10.21-.31-.4-1 0-.69.4 1.65 2.17-2.9 5.77-4.16 6.61a16.28 16.28 0 0 1-7.73 2.58c-6 .6-13.78-1.69-14.32-9.06 0-.5-.83-.51-.79 0zm-99.24 9.7c5 1.49 10.92.34 16.06-.06 6.08-.48 12.23-1.2 18.24-2.24 10.69-1.84 21.52-5.72 25.32-16.83a39.89 39.89 0 0 0-2.33-30.36 29.84 29.84 0 0 0-10.39-11.48 45.18 45.18 0 0 0-6.09-3.28c-2.57-1.09-6.75-1.45-8.82-3.29-.37-.34-.93.22-.55.56 2.6 2.32 7.25 2.47 10.4 4a33.15 33.15 0 0 1 12.31 10.09c6.78 9.17 8.37 22.67 4.7 33.35-4 11.67-15.54 14.92-26.5 16.75-5.52.93-11.36 1.48-16.94 1.95-4.84.4-10.42 1.46-15.2.05a.39.39 0 0 0-.21.76z" transform="translate(-10.71 -20.9)"/><path d="M956.81 155.93a5.26 5.26 0 0 0-2.54-1.76c-3.4-1.64-6.89-3.34-8.72-6.9-4.11-8 1.08-18.63 6.12-24.79 9.54-11.67 21.45-17.19 36.4-18.23 14.46-1 29-2.75 43.3.9a71.23 71.23 0 0 1 17.54 6.63c6.65 3.74 11.76 9.53 16.65 15.28a93.51 93.51 0 0 1 20 39.21c1.67 7.22 3.58 15.35 2.42 22.78a70.51 70.51 0 0 1-7.46 22.22c-14.48 27.15-44.8 40.31-74 43.87-16.7 2-34 2.28-50.55-1-7.49-1.49-15.25-3.65-21.6-8-8.18-5.67-11.47-15.78-11.4-25.4a.4.4 0 0 0-.79 0c0 6.78 1.5 14.67 5.61 20.24 3.66 5 9.24 8.13 14.88 10.32 15.48 6 33.48 6.78 49.88 5.92 31.61-1.65 65.4-11.22 84.43-38.57 8.52-12.25 13.35-27 11.34-41.93-2.21-16.3-8.29-32.24-18.3-45.37-9-11.77-18.65-20.87-33-25.37-15.89-5-31.8-3.79-48.14-2.5-7.78.61-15.12 1.64-22.21 5.19-6.84 3.42-12.62 9.22-17.14 15.31s-7.16 13.47-5.7 21a11.93 11.93 0 0 0 4.23 6.61c2 1.67 6.64 2.84 8.06 4.82.3.41 1 0 .68-.4zm276.53-58.77c.06 9.71 1.79 19.24 2.73 28.87.93 9.46 1 19 2 28.44.64 6 .57 24.22 9.5 24.62 7.53.34 11.42-13.08 13.51-18.37 7.14-18 14.35-36 20.75-54.3.64-1.82-2.26-2.61-2.89-.79-5.54 15.84-11.59 31.49-17.84 47.06-1.71 4.25-3.3 8.6-5.17 12.78-1.31 2.92-3.89 9.83-7.52 10.52-7.21 1.39-7.89-27.16-8.15-31.13-.55-8.1-.84-16.2-1.82-24.27-1-7.8-2.07-15.56-2.12-23.43a1.5 1.5 0 0 0-3 0z" transform="translate(-10.71 -20.9)"/><path d="M1263.77 146.93c4.86 11.86 11.94 27.29 26.76 27.68 1.93.06 1.93-2.94 0-3-13.21-.35-19.57-15-23.87-25.48-.72-1.76-3.62-1-2.89.8zm50.78 1.38c-3.37 4.67-6.17 11.13-2.61 16.53 2.06 3.13 6.27 5.56 9.65 2.91 1.58-1.23 2.46-3.26 3.42-5 .66-1.15 1.61-3.5 3-3.93 2.93-.91 4.46 2.81 5.71 4.53 2.38 3.26 6.27 7.35 10.62 7.48 8.24.26 13.42-15.59 21.17-11.68 4.86 2.46 7.27 8.34 13.5 7.85 3.86-.31 7.55-2.53 8-6.58.2-1.92-2.8-1.91-3 0-.49 4.65-7.3 3.66-9.59 2.25s-4-3.77-6.21-5.33a8.43 8.43 0 0 0-7-1.64c-6.46 1.64-8.72 9.81-14.86 11.82-9.09 3-10.38-14.22-18.7-11.77-2.71.79-4.14 3.69-5.42 6a15.34 15.34 0 0 1-1.26 2.19c-2.66 3.18-6.65.23-7.45-3-1-4 1.46-8 3.68-11.08 1.13-1.57-1.47-3.07-2.59-1.51zm49.45-30.66a1.5 1.5 0 0 0 0-3 1.5 1.5 0 0 0 0 3zm134.36-25.55c-.84-9.2.35-26.26-14-20.61-11.16 4.39-23.26 14.54-24.51 27.12-1.44 14.41 10.7 25.71 19.07 35.84 7.79 9.41 18.94 21.07 19.76 33.92.63 9.68-7.77 14.83-15.74 18-4.67 1.87-10.33 3.52-15.36 2.23-3.37-.86-9-3.79-8.43-7.89.24-1.91-2.76-1.89-3 0-.63 5 4.6 8.45 8.66 10.1 5.83 2.36 12.52.88 18.19-1.27 10.9-4.12 20.76-11.4 18.29-24.27-2.24-11.63-10.93-21.48-18.18-30.4-9.54-11.74-26.57-26.71-18-43.4 3.71-7.25 11.18-12.79 18.41-16.32 5.25-2.56 9.74-2.64 11 4 .82 4.23.46 8.64.85 12.92.17 1.91 3.18 1.93 3 0zm25.11 69.11c2-3 3.68-6.14 6.24-8.68l-1.82.23c1.48.72.43 6.07.69 7.74a11.93 11.93 0 0 0 4.05 7.58c4.93 3.95 11.3 3.21 16.51.46 3.53-1.86 7.1-4.58 11.26-4.66 3.82-.08 6.65 3 10.08 4.23 5.64 2 13-.08 17.31-4.06 1.43-1.31-.7-3.43-2.12-2.12a16.25 16.25 0 0 1-11.21 3.93c-3.85-.21-6.29-2.75-9.67-4.12-4.69-1.89-9.4-.1-13.59 2.19-2.54 1.38-5 3.2-7.92 3.77-4.79.94-9.89-1.27-11.38-6.08-1-3.13 1.19-9.65-2.5-11.45a1.53 1.53 0 0 0-1.81.24c-2.75 2.72-4.56 6.11-6.71 9.29-1.08 1.6 1.52 3.11 2.59 1.51zm52.11-45.06v-1.26a1.5 1.5 0 0 0-3 0v1.26a1.5 1.5 0 1 0 3 0zm37.34 31.47c-7.71 3.12-9.71 9.33-10.2 17.23-.35 5.61 2.82 13.1 9.4 8.32 9-6.55 11.74-19.6 13.5-29.92 2.37-14 4.76-28.35 10.69-41.31h-2.59c2.64 6 1.69 13.25 1.9 19.68.28 8.13-.17 16.33.88 24.43 1.16 9 4.94 19.32 13.45 23.85 8.69 4.63 18.75.34 25.23-6.06 7.88-7.79 11.85-18.19 15.14-28.54a202 202 0 0 0 6.13-24.46c1-5.69 1.78-11.73-1.4-16.87a1.52 1.52 0 0 0-2.36-.3c-7 6.51-10.65 15.16-12.7 24.37-2.26 10.2-4 21.37-2.76 31.8 1 8.52 4.23 16.55 11.1 22 6.67 5.27 16.45 9.92 25 10.39 1.93.1 1.92-2.9 0-3-8-.44-17.69-5.06-23.85-10.31-6.76-5.76-9.19-14.55-9.58-23.15-.41-9.18 1.1-18.75 3.17-27.67 2-8.45 5.31-16.3 11.76-22.29l-2.36-.31c4 6.42 1 15.43-.48 22.25a200.12 200.12 0 0 1-6.89 23.71c-3.83 10.73-11 24.13-23.16 26.91-16 3.67-22-14.6-22.88-27-.54-7.74-.42-15.58-.53-23.34-.08-6 .25-12-2.21-17.62a1.51 1.51 0 0 0-2.59 0c-7.74 16.94-8.31 35.35-13.52 52.94-1.44 4.88-3 10.22-6.34 14.17-2.58 3-7.45 6.46-8.17.23-.79-6.81 1.36-14.55 8-17.25 1.76-.72 1-3.62-.8-2.89zM179.94 176.91a6.5 6.5 0 0 0-1.16 2.15.3.3 0 0 0 .47.37c1.94-1.58 3.41-3.78 5.2-5.53 2.43-2.38 5.1-4.53 7.68-6.74q7.43-6.34 14.94-12.58c5-4.18 10-8.45 15-12.71s10.47-8.06 14.79-12.88c.26-.29-.17-.72-.43-.43-4.32 4.82-9.88 8.68-14.79 12.88-5.21 4.46-10.41 8.93-15.68 13.31s-10.45 8.76-15.63 13.19c-2.35 2-4.75 4-6.92 6.18-1.08 1.1-2 2.31-3.09 3.43-.8.85-.87 1.25.18-.34.22-.32-.31-.63-.52-.3z" transform="translate(-10.71 -20.9)"/><path d="M179.56 180.69c4.77-4.78 9-10 13.93-14.69 5.2-4.91 10.6-9.6 15.93-14.36 5-4.48 9.91-9.06 14.85-13.61 2.71-2.5 8.74-6.1 9.6-10a.31.31 0 0 0-.3-.38c-1.19-.12-.79-.2-1.82.41a.3.3 0 0 0 .31.52c1-.59-1.69 3-1.64 2.91a32 32 0 0 1-2.63 2.44l-7.25 6.68c-4.74 4.38-9.5 8.75-14.33 13-4.65 4.14-9.33 8.24-13.83 12.54-4.68 4.47-8.71 9.48-13.25 14-.27.28.15.71.43.43z" transform="translate(-10.71 -20.9)"/><path d="M178.71 178.56c8.21-8.2 16.25-16.42 25-24.06 4.13-3.61 8.32-7.17 12.41-10.83s8.8-6.71 12.15-10.83c.25-.3-.18-.74-.43-.43-3.17 3.9-7.73 6.87-11.47 10.22-4.32 3.87-8.73 7.63-13.09 11.44-8.75 7.64-16.79 15.86-25 24.06-.28.27.15.7.43.43zm.37 2.07c5.87 9.44 12.45 18.43 18.34 27.86 2.86 4.57 5.63 9.18 8.53 13.72 1.55 2.42 3.12 4.84 4.56 7.32 1 1.71 2.12 5.47 3.66 6.71-.3-.25-.73.18-.43.43l.39.3a.3.3 0 0 0 .5-.29c-1-4.08-3.89-8-6.09-11.54q-4.81-7.66-9.6-15.35c-6.19-10-13.14-19.49-19.33-29.47-.21-.33-.73 0-.53.31z" transform="translate(-10.71 -20.9)"/><path d="M177.37 175.93c7.85 13.35 15.94 26.55 23.44 40.09 3.65 6.6 7.17 13.27 10.38 20.1 1.5 3.2 3.12 6.26 4.78 9.36.64 1.18 1 2.41 2.11 3.2.31.23.62-.3.3-.53-1.69-1.21-2.92-4.75-3.85-6.51-1.58-3-2.92-6.12-4.4-9.17-3.13-6.47-6.64-12.91-10.13-19.24-7.1-12.68-14.69-25.08-22-37.61a.31.31 0 0 0-.53.31z" transform="translate(-10.71 -20.9)"/><path d="M174 175.5c7 14.32 14.75 28.29 24.17 41.17 4.67 6.39 9.48 12.68 13.88 19.26 2.09 3.12 4.11 6.29 5.94 9.57s3 7 5.14 9.91c.23.31.76 0 .53-.31-2.13-2.91-3.38-6.75-5.14-9.91s-3.85-6.45-5.94-9.57c-4.41-6.58-9.22-12.86-13.88-19.25-9.42-12.9-17.17-26.86-24.18-41.17-.17-.35-.7 0-.52.3z" transform="translate(-10.71 -20.9)"/><path d="M179.94 180.63c13.68 22.82 26.22 46.31 39.74 69.22.19.34.72 0 .52-.31-13.52-22.91-26-46.39-39.74-69.22a.3.3 0 0 0-.52.31zm-16.28-61.25c-.52 18-1.44 36.14-2.85 54.12-1.37 17.39-4.26 34.77-4 52.23 0 4.13.27 8.25.7 12.36.39 3.75 1.71 8.34 1.07 12.11-.44 2.6-.6.18-.91-1.22a35.89 35.89 0 0 1-.5-5.29c-.29-4.58-.5-9.19-.61-13.78-.2-8.39.47-16.78.51-25.17 0-8.64-.44-17.27-.47-25.91-.08-19.43 6.18-38 6.43-57.32a.31.31 0 0 0-.61 0c-.16 12.62-3.44 24.71-5.15 37.13-1.58 11.49-1.22 23-.95 34.51.28 11.95-.57 23.88-.38 35.83.1 5.79.29 11.68.83 17.45.2 2.13.14 5.32 1.81 6.88a.31.31 0 0 0 .52-.22c.45-4.68-.37-9.41-.88-14.06a139.62 139.62 0 0 1-.8-17.11c.13-11.3 1.61-22.5 2.72-33.73 2.25-22.84 3.51-45.87 4.17-68.81a.31.31 0 0 0-.61 0z" transform="translate(-10.71 -20.9)"/><path d="M164 123.52c1.74 0 3.48.13 5.21.06s3.56-.46 5.36-.48a.31.31 0 0 0 0-.61h-.31a.31.31 0 0 0 0 .61h.31v-.61c-1.8 0-3.56.42-5.36.49s-3.47 0-5.21-.06a.3.3 0 0 0 0 .6z" transform="translate(-10.71 -20.9)"/><path d="M157.55 253.42a88.78 88.78 0 0 0 10.19-.44.32.32 0 0 0 .31-.3c1-11.21-.91-22.64-1.17-33.85-.27-12 1-24.12 2.3-36.07.58-5.21.36-10.3.59-15.51.25-5.66 1.63-11.29 2.27-16.92s2-10.85 2.05-16.46q.06-4.58 0-9.17c0-1-.14-2.08-.08-3.1.15-.86.28-1.73.4-2.6a.91.91 0 0 0-.51-.91.31.31 0 0 0 .61 0v-.28c0-.39-.57-.38-.61 0-.45 5.36-.37 10.66-.42 16.06-.06 6.36-1.56 12.84-2.4 19.16-.73 5.57-2 11.06-1.94 16.7a162.44 162.44 0 0 1-1.07 17.63c-1.25 12.33-2.25 24.66-1.59 37 .35 6.46 1 12.9 1 19.37 0 2.26.8 6.77-.73 8.25s-7.24.78-9.26.78a.31.31 0 0 0 0 .61zM174 174.71c4.92-5.08 9.21-10.33 14.85-14.68 4.87-3.75 9.48-7.87 14.15-11.85 5.63-4.82 11.55-9.28 17.15-14.12 2.29-2 4.62-3.95 6.85-6 1.4-1.28 3.65-5.33 5.4-5.84a.3.3 0 0 0-.16-.58c-1.38.4-1.79 1.19-2.65 2.35a47 47 0 0 1-7.07 7.18c-5.81 5.11-11.93 9.81-17.86 14.78-5.76 4.84-11.42 9.77-17.3 14.44-5.21 4.13-9.2 9.14-13.79 13.88a.3.3 0 0 0 .43.43z" transform="translate(-10.71 -20.9)"/><path d="M232.07 121.67c.77 1.48 1.47 3 2.26 4.48.53 1 1.07 2.37 2.12 2.89.35.17.66-.35.31-.53-1.13-.55-1.83-2.51-2.37-3.56s-1.18-2.4-1.8-3.59c-.18-.35-.7 0-.52.31zM171.44 179c-.83 1.05 3.76 7.14 4.3 8 2.19 3.47 4.22 7 6.47 10.47 4.89 7.47 9.83 14.83 14.62 22.36 4.2 6.62 8.47 12.93 12.21 19.84 1.8 3.33 3.86 6.32 5.29 9.87a92.09 92.09 0 0 0 4 9.2c.12.22.52.2.56-.07.3-2.11 5.25-4.68 6.85-6.16.28-.27-.15-.7-.43-.43-1.43 1.33-4.53 4.49-6.6 5-1.09.29.6 1.1-.7-.7-1.51-2.1-2.06-4.74-3-7.1-1.34-3.32-3.3-6.15-5-9.25-2.25-4-4.24-8.08-6.78-11.94-5.28-8-10.25-16.22-15.72-24.1s-12.2-16.61-15.59-25.72c-.07-.19-.35-.33-.51-.13l-.32.4c-.24.31.19.74.43.43z" transform="translate(-10.71 -20.9)"/><path d="M172 182.69c-.29.83 2.62 4.89 3.13 5.91 1.13 2.3 2.35 4.55 3.49 6.84 2.28 4.57 4.43 9.27 6.88 13.75 4.69 8.56 8.88 16.83 15 24.51s10.89 16.12 15.54 24.81c.82 1.52.65 1.76 2.25 1.62a7.31 7.31 0 0 0 5-3.94c.14-.37-.45-.53-.58-.16-.66 1.73-4 4.16-6 2.63a19.85 19.85 0 0 1-1.29-3 67.46 67.46 0 0 0-5.91-10.13c-4.7-6.94-10.35-13.39-14.8-20.45a215.73 215.73 0 0 1-10.87-20.57c-3.57-7.32-6.88-15.82-11.79-22.35a.31.31 0 0 0-.55.07l-.1.28c-.13.37.46.53.59.16zm1.71-4.48c1.93.28 3-2.2 4.16-3.36 4.73-4.67 11.5-7.74 16.92-11.55 10-7.05 18.86-15.81 27.5-24.48a.3.3 0 0 0-.43-.43c-8.18 8.22-16.54 16.56-26 23.37-4.33 3.13-8.9 5.9-13.31 8.91a38 38 0 0 0-5.16 3.75c-.84.83-2.16 3.41-3.57 3.2-.38-.06-.55.53-.16.59zm-.13-5.21c8.4-7.23 16.91-14.33 25.42-21.44 3.82-3.2 7.66-6.39 11.43-9.65 2-1.74 4.06-3.48 6-5.27.55-.5 4.45-3.55 4.44-4a.3.3 0 0 0 .6 0v-.77a.31.31 0 0 0-.52-.21c-7.65 6.2-14.83 13.15-22.41 19.49-8.51 7.11-17 14.21-25.42 21.44-.3.26.13.68.43.43z" transform="translate(-10.71 -20.9)"/><path d="M182.49 166.21q10.57-8.11 20.79-16.7c3.4-2.84 6.77-5.72 10.13-8.6 1.82-1.56 3.62-3.14 5.48-4.65 1.24-1 3.53-3.4 4.81-3.93-.35.15-.2.73.16.58.72-.29.72-.2 1-.91a.31.31 0 0 0-.42-.41c-3.25 1.41-6 4.23-8.7 6.5-3.35 2.84-6.65 5.72-10 8.55-7.72 6.52-15.55 12.89-23.57 19.05-.3.23 0 .76.31.52zm-14.98-42.99c-.24 16.62-2.23 32.85-4.53 49.29a237.8 237.8 0 0 0-2.16 45.87c.35 7-.93 14.09.54 21 .81 3.77 1.5 8.1 2.59 11.74.6 2 .25-.86.24-1.37 0-1-.19-2-.27-2.9-.19-2.26-.3-4.52-.38-6.79-.54-15.64-.08-31.37-.19-47a169.75 169.75 0 0 1 1.12-24.18c1-7.61 2.25-15.12 2.83-22.78.32-4.18.07-8.46.59-12.61.32-2.59 1.3-8.35 3-10.4.57-.68-.43-1.34.76-.61.89.55.4 1.15.45 2 .12 2.07-.5 4.4-.77 6.43-.44 3.4-.81 6.82-1.15 10.24-1.56 15.77-3.39 31.55-3.84 47.41-.23 7.87-.65 16.06 0 23.9.54 6.36 2.47 12.69 3.86 18.9.09.42 1.07 3.3.05 3.28-.51 0-1.07-4.6-1.15-5.11a116.86 116.86 0 0 1-1.35-13.83c-.3-8.56-.65-17.18-.5-25.74.33-17.78 3-35.49 3.92-53.24a.3.3 0 0 0-.31-.3c-2.53.2-2.54 9-2.71 10.84a241.1 241.1 0 0 0-1.15 27.63c.14 7 1 14 1.4 21s.29 14 .58 20.94-.66 13.81-1 20.87c-.34 6.77.84 13.71.8 20.53a.31.31 0 0 0 .61 0c0-8.35-1.31-16.74-.27-25s.3-16.58.27-25c-.09-17.32-2.18-34.33-1.3-51.69.17-3.28.38-6.56.7-9.83a65.56 65.56 0 0 1 .91-6.71 6.2 6.2 0 0 1 .65-2.37c.54-.68.07.08.12.59a17.77 17.77 0 0 1-.35 3.15c-.87 8.28-1.13 16.63-1.87 24.93-.8 8.83-1.64 17.67-1.64 26.55 0 9.3.07 18.77.82 28.05a87.56 87.56 0 0 0 1.43 10.94c.33 1.57.56 4 2.14 4.84a.32.32 0 0 0 .45-.18c.46-2.19-.47-4.46-.93-6.58-1-4.75-2.38-9.5-3.17-14.29-1.81-11.12-.71-23.52-.11-34.73.57-10.78 1.78-21.48 2.8-32.22.52-5.39 1-10.78 1.66-16.15.54-4.33 1.61-8.8.69-13.12a.29.29 0 0 0-.44-.18c-1.93 1.48-2.22 5.43-3 7.58-1.8 5.33-1.76 9.75-2 15.32-.63 12.68-3.53 25.08-4.08 37.75-.52 12.23.17 24.49.07 36.73s-.66 24.75 1.17 37c.05.34.61.26.6-.08a62.86 62.86 0 0 0-2.33-12.53c-1.58-6.07-.83-11.89-.81-18.05 0-11-1.21-21.78-.17-32.8 2.14-22.43 6.4-44.29 6.71-66.9a.3.3 0 0 0-.6 0z" transform="translate(-10.71 -20.9)"/><circle cx="1779.23" cy="322.87" r="11.23"/><path d="M1806.35 319.52h-28.66c-.45 0-11.67-1.07-12.8-11.08-1.1-9.74-8.72-12.42-9.44-12.65a.23.23 0 0 0-.11 0h-19.9a46.59 46.59 0 0 1 8.4 45c-.4 1.19-.85 2.35-1.34 3.48h32.95c1.08-.28 1.16-1 1.09-1.43a.36.36 0 0 1 .35-.42.37.37 0 0 0 .36-.32 12.88 12.88 0 0 1 25.52 0 .37.37 0 0 0 .36.32.35.35 0 0 1 .25.1c2.86 2.72 6.19.42 6.49.2 11.58-11.55 2.81-23.2-3.52-23.2zm6.65-56.77h-28.66c-.45 0-11.67-1.07-12.8-11.08-1.09-9.74-8.72-12.42-9.44-12.65h-35.25a.36.36 0 0 0-.36.36v47.79a.36.36 0 0 0 .36.36h55.25c1.08-.29 1.16-1 1.09-1.44a.36.36 0 0 1 .35-.42.37.37 0 0 0 .36-.32 12.88 12.88 0 0 1 25.52 0 .37.37 0 0 0 .36.32.35.35 0 0 1 .25.1c2.86 2.72 6.19.42 6.49.2h.05c11.54-11.57 2.77-23.22-3.57-23.22z" transform="translate(-10.71 -20.9)"/><circle cx="1785.89" cy="266.1" r="11.23"/><path d="M1563.84 322.56c.08 15.11 12.77 27.65 27.76 27.44a28.23 28.23 0 0 0 27.4-28c-.09-15.09-12.6-27.23-28-27.17s-27.25 12.17-27.16 27.73z" transform="translate(-10.71 -20.9)"/><path d="M1650.23 319.35a7.5 7.5 0 0 1-.1-1.44c.13-.65.37-1.27.52-1.92 1.76-7.55 4.58-15.06-.45-22.57a7.28 7.28 0 0 1-.87-5.32c1.88-7.14-2.67-9.77-7.9-12.1-1.52-.67-3-1.45-4.49-2.15-20.76-9.62-42.82-14.31-65.38-16.77-11.4-1.24-23-2.61-34.35-1.67-6.68.56-10.63-2-15.24-5.14-17.3-11.86-35.5-21.76-56.61-24.82-6.72-1-13.57-1-20.36-1.45h-9.29a207.67 207.67 0 0 1 5.07 110.83l119.34 1.65c-6-16.68-2.73-30.83 11.23-41.6a32.54 32.54 0 0 1 38.34-1.15c14.83 10.1 18.46 24.28 13.49 41.61 11-1.25 21.33-3.12 30.82-8.34v-6z" transform="translate(-10.71 -20.9)"/><path d="M1238 208a157.06 157.06 0 0 0-146.33 100h1.33c6.79.46 13.64.48 20.36 1.45 21.11 3.06 39.31 13 56.61 24.82 4.61 3.16 8.56 5.7 15.24 5.14 11.33-.94 23 .43 34.35 1.67 22.56 2.46 44.62 7.15 65.38 16.77 1.5.7 3 1.48 4.49 2.15 5.23 2.33 9.78 5 7.9 12.1a7.28 7.28 0 0 0 .87 5.32c5 7.51 2.21 15 .45 22.57-.15.65-.39 1.27-.52 1.92a7.5 7.5 0 0 0 .1 1.44L1302 405v6c-9.49 5.22-19.84 7.09-30.82 8.34 5-17.33 1.34-31.51-13.49-41.61a32.54 32.54 0 0 0-38.34 1.15c-14 10.77-17.28 24.92-11.23 41.6l-117.64-1.62A157 157 0 1 0 1238 208z" transform="translate(-10.71 -20.9)" fill="#bdccd4"/><path d="M1219.35 378.88a32.54 32.54 0 0 1 38.34-1.15c14.83 10.1 18.46 24.28 13.49 41.61 11-1.25 21.33-3.12 30.82-8.34v-6l-3.77-1.65a7.5 7.5 0 0 1-.1-1.44c.13-.65.37-1.27.52-1.92 1.76-7.55 4.58-15.06-.45-22.57a7.28 7.28 0 0 1-.87-5.32c1.88-7.14-2.67-9.77-7.9-12.1-1.52-.67-3-1.45-4.49-2.15-20.76-9.62-42.82-14.31-65.38-16.77-11.4-1.24-23-2.61-34.35-1.67-6.68.56-10.63-2-15.24-5.14-17.3-11.86-35.5-21.76-56.61-24.82-6.72-1-13.57-1-20.36-1.45h-1.33a157.66 157.66 0 0 0-1.19 110.86l117.64 1.62c-6.05-16.68-2.73-30.83 11.23-41.6z" transform="translate(-10.71 -20.9)"/><path d="M1211.84 406.56c.08 15.11 12.77 27.65 27.76 27.44a28.23 28.23 0 0 0 27.4-28c-.09-15.09-12.6-27.23-28-27.17s-27.25 12.17-27.16 27.73zM357.29 880.73v6c-9.49 5.22-19.84 7.09-30.82 8.34 5-17.33 1.34-31.51-13.49-41.61a32.54 32.54 0 0 0-38.34 1.15c-14 10.77-17.28 24.92-11.23 41.6l-124.18-1.72c1.29-.92 2.55-1.9 3.78-2.92A67.93 67.93 0 0 0 161.16 868q6.54-13.85 6.54-31.62 0-15-5-26.06a64 64 0 0 0-13.08-19.12 86.69 86.69 0 0 0-8.58-7.51h7.23c6.79.46 13.64.48 20.36 1.45 21.11 3.06 39.31 13 56.61 24.82 4.61 3.16 8.56 5.7 15.24 5.14 11.33-.94 22.95.43 34.35 1.67 22.56 2.46 44.62 7.15 65.38 16.77 1.5.7 3 1.48 4.49 2.15 5.23 2.33 9.78 5 7.9 12.1a7.28 7.28 0 0 0 .87 5.32c5 7.51 2.21 15 .45 22.57-.15.65-.39 1.27-.52 1.92a7.5 7.5 0 0 0 .1 1.44z" transform="translate(-10.71 -20.9)"/><path d="M267.13 882.29c.08 15.11 12.77 27.65 27.76 27.44a28.23 28.23 0 0 0 27.44-28c-.09-15.09-12.6-27.23-28-27.17s-27.33 12.18-27.2 27.73zm-256.42 9.19a28.21 28.21 0 0 0 5.15 3.93c.87.56 1.82 1.13 2.86 1.73A93.07 93.07 0 0 0 33 903.58a128.71 128.71 0 0 0 19.32 5.27c1.67.33 3.38.62 5.12.88A126.07 126.07 0 0 0 75.81 911a113.79 113.79 0 0 0 33.87-4.88 80.06 80.06 0 0 0 23.55-11.62c1.29-.92 2.55-1.9 3.78-2.92a67.93 67.93 0 0 0 18.15-23.53q6.54-13.84 6.54-31.62 0-15-5-26.06a64 64 0 0 0-13.08-19.12 86.69 86.69 0 0 0-8.58-7.51 91.65 91.65 0 0 0-9.86-6.55q-10.35-6-21.08-10.93T83 756.4a115.83 115.83 0 0 1-18.44-10.73 50 50 0 0 1-13-13.47q-4.89-7.62-4.88-18.15a36.81 36.81 0 0 1 2.54-13.67 29.71 29.71 0 0 1 7.61-11.12 37.48 37.48 0 0 1 12.88-7.52 54 54 0 0 1 18.35-2.83 68.66 68.66 0 0 1 20.4 2.83 98.57 98.57 0 0 1 15.76 6.26c4.42 2.28 8.17 4.33 11.22 6.15s5.3 2.73 6.74 2.73l1.07-30.16c-1.24-1.23-3.8-2.86-7.71-4.88a89 89 0 0 0-13.37-5.46 115.18 115.18 0 0 0-16-3.91A100 100 0 0 0 89.28 651a102.54 102.54 0 0 0-30.55 4.39 71.69 71.69 0 0 0-24.4 12.78 58.1 58.1 0 0 0-16 20.79q-5.76 12.4-5.76 28.21 0 15.42 5 26.45a65.94 65.94 0 0 0 13 19.22 88.16 88.16 0 0 0 18.15 14.25 226.05 226.05 0 0 0 20.89 11l1.52.71 19.46 9a114 114 0 0 1 18.25 10.54 49.28 49.28 0 0 1 12.88 13.37q4.88 7.62 4.88 18.35a42.85 42.85 0 0 1-3.51 17.76 35.78 35.78 0 0 1-10 13.18 47.27 47.27 0 0 1-15.62 8.3 61.9 61.9 0 0 1-15 2.76c-1.64.11-3.32.16-5 .16H76a84.38 84.38 0 0 1-24.06-3.4 126.46 126.46 0 0 1-18.84-7.32 121.77 121.77 0 0 1-12.78-7.22q-.74-.5-1.41-.9-3.78-2.31-6.07-2.41h-.23z" transform="translate(-10.71 -20.9)"/><circle cx="561.79" cy="775.6" r="197.5" fill="url(#Unbenannter_Verlauf_3)"/><path class="cls-10" d="M728.29 880.23v6c-9.49 5.22-19.84 7.09-30.82 8.34 5-17.33 1.34-31.51-13.49-41.61a32.54 32.54 0 0 0-38.34 1.15c-14 10.77-17.28 24.92-11.23 41.6L510.23 894c1.29-.92 2.55-1.9 3.78-2.92a67.93 67.93 0 0 0 18.15-23.53q6.54-13.85 6.54-31.62 0-15-5-26.06a64 64 0 0 0-13.08-19.12 86.69 86.69 0 0 0-8.58-7.51h7.23c6.79.46 13.64.48 20.36 1.45 21.11 3.06 39.31 13 56.61 24.82 4.61 3.16 8.56 5.7 15.24 5.14 11.33-.94 23 .43 34.35 1.67 22.56 2.46 44.62 7.15 65.38 16.77 1.5.7 3 1.48 4.49 2.15 5.23 2.33 9.78 5 7.9 12.1a7.28 7.28 0 0 0 .87 5.32c5 7.51 2.21 15 .45 22.57-.15.65-.39 1.27-.52 1.92a7.5 7.5 0 0 0 .1 1.44z" transform="translate(-10.71 -20.9)"/><path class="cls-10" d="M638.13 881.79c.08 15.11 12.77 27.65 27.76 27.44a28.23 28.23 0 0 0 27.44-28c-.09-15.09-12.6-27.23-28-27.17s-27.33 12.18-27.2 27.73zM381.71 891a28.21 28.21 0 0 0 5.15 3.93c.87.56 1.82 1.13 2.86 1.73a93.07 93.07 0 0 0 14.28 6.42 128.71 128.71 0 0 0 19.32 5.27c1.67.33 3.38.62 5.12.88a126.07 126.07 0 0 0 18.39 1.27 113.79 113.79 0 0 0 33.87-4.88A80.06 80.06 0 0 0 504.23 894c1.29-.92 2.55-1.9 3.78-2.92a67.93 67.93 0 0 0 18.15-23.53q6.54-13.84 6.54-31.62 0-15-5-26.06a64 64 0 0 0-13.08-19.12 86.69 86.69 0 0 0-8.58-7.51 91.65 91.65 0 0 0-9.86-6.55q-10.35-6-21.08-10.93T454 755.9a115.83 115.83 0 0 1-18.44-10.73 50 50 0 0 1-13-13.47q-4.89-7.62-4.88-18.15a36.81 36.81 0 0 1 2.54-13.67 29.71 29.71 0 0 1 7.61-11.12 37.48 37.48 0 0 1 12.88-7.52 54 54 0 0 1 18.35-2.83 68.66 68.66 0 0 1 20.4 2.83 98.57 98.57 0 0 1 15.71 6.25c4.42 2.28 8.17 4.33 11.22 6.15s5.3 2.73 6.74 2.73l1.07-30.16c-1.24-1.23-3.8-2.86-7.71-4.88a89 89 0 0 0-13.37-5.46 115.18 115.18 0 0 0-16-3.91 100 100 0 0 0-16.89-1.46 102.54 102.54 0 0 0-30.55 4.39 71.69 71.69 0 0 0-24.4 12.78 58.1 58.1 0 0 0-16 20.79q-5.76 12.4-5.76 28.21 0 15.42 5 26.45a65.94 65.94 0 0 0 13 19.22 88.16 88.16 0 0 0 18.15 14.25 226.05 226.05 0 0 0 20.89 11l1.52.71 19.46 9a114 114 0 0 1 18.25 10.54 49.28 49.28 0 0 1 12.88 13.37q4.88 7.62 4.88 18.35a42.85 42.85 0 0 1-3.51 17.76A35.78 35.78 0 0 1 484 870.58a47.27 47.27 0 0 1-15.62 8.3 61.9 61.9 0 0 1-15 2.76c-1.64.11-3.32.16-5 .16H447a84.38 84.38 0 0 1-24.06-3.4 126.46 126.46 0 0 1-18.84-7.32 121.77 121.77 0 0 1-12.78-7.22q-.73-.5-1.41-.9-3.78-2.31-6.07-2.41h-.23z" transform="translate(-10.71 -20.9)"/><circle cx="1415.79" cy="775.6" r="197.5" fill="url(#Unbenannter_Verlauf_6)"/><path class="cls-10" d="M1582.29 880.23v6c-9.49 5.22-19.84 7.09-30.82 8.34 5-17.33 1.34-31.51-13.49-41.61a32.54 32.54 0 0 0-38.34 1.15c-14 10.77-17.28 24.92-11.23 41.6L1364.23 894c1.29-.92 2.55-1.9 3.78-2.92a67.93 67.93 0 0 0 18.15-23.53q6.54-13.85 6.54-31.62 0-15-5-26.06a64 64 0 0 0-13.08-19.12 86.69 86.69 0 0 0-8.58-7.51h7.23c6.79.46 13.64.48 20.36 1.45 21.11 3.06 39.31 13 56.61 24.82 4.61 3.16 8.56 5.7 15.24 5.14 11.33-.94 23 .43 34.35 1.67 22.56 2.46 44.62 7.15 65.38 16.77 1.5.7 3 1.48 4.49 2.15 5.23 2.33 9.78 5 7.9 12.1a7.28 7.28 0 0 0 .87 5.32c5 7.51 2.21 15 .45 22.57-.15.65-.39 1.27-.52 1.92a7.5 7.5 0 0 0 .1 1.44z" transform="translate(-10.71 -20.9)"/><path class="cls-10" d="M1492.13 881.79c.08 15.11 12.77 27.65 27.76 27.44a28.23 28.23 0 0 0 27.44-28c-.09-15.09-12.6-27.23-28-27.17s-27.33 12.18-27.2 27.73zM1235.71 891a28.21 28.21 0 0 0 5.15 3.93c.87.56 1.82 1.13 2.86 1.73a93.07 93.07 0 0 0 14.25 6.44 128.71 128.71 0 0 0 19.32 5.27c1.67.33 3.38.62 5.12.88a126.07 126.07 0 0 0 18.39 1.27 113.79 113.79 0 0 0 33.87-4.88 80.06 80.06 0 0 0 23.56-11.64c1.29-.92 2.55-1.9 3.78-2.92a67.93 67.93 0 0 0 18.15-23.53q6.54-13.84 6.54-31.62 0-15-5-26.06a64 64 0 0 0-13.08-19.12 86.69 86.69 0 0 0-8.58-7.51 91.65 91.65 0 0 0-9.86-6.55q-10.35-6-21.08-10.93t-21.1-9.86a115.83 115.83 0 0 1-18.44-10.73 50 50 0 0 1-13-13.47q-4.89-7.62-4.88-18.15a36.81 36.81 0 0 1 2.54-13.67 29.71 29.71 0 0 1 7.61-11.12 37.48 37.48 0 0 1 12.88-7.52 54 54 0 0 1 18.35-2.83 68.66 68.66 0 0 1 20.4 2.83 98.57 98.57 0 0 1 15.71 6.25c4.42 2.28 8.17 4.33 11.22 6.15s5.3 2.73 6.74 2.73l1.07-30.16c-1.24-1.23-3.8-2.86-7.71-4.88a89 89 0 0 0-13.37-5.46 115.18 115.18 0 0 0-16-3.91 100 100 0 0 0-16.89-1.46 102.54 102.54 0 0 0-30.55 4.39 71.69 71.69 0 0 0-24.4 12.78 58.1 58.1 0 0 0-16 20.79q-5.76 12.4-5.76 28.21 0 15.42 5 26.45a65.94 65.94 0 0 0 13 19.22 88.16 88.16 0 0 0 18.15 14.25 226.05 226.05 0 0 0 20.89 11l1.52.71 19.46 9a114 114 0 0 1 18.25 10.54 49.28 49.28 0 0 1 12.88 13.37q4.88 7.62 4.88 18.35a42.85 42.85 0 0 1-3.51 17.76 35.78 35.78 0 0 1-10 13.18 47.27 47.27 0 0 1-15.62 8.3 61.9 61.9 0 0 1-15 2.76c-1.64.11-3.32.16-5 .16H1301a84.38 84.38 0 0 1-24.06-3.4 126.46 126.46 0 0 1-18.84-7.32 121.77 121.77 0 0 1-12.78-7.22q-.73-.5-1.41-.9-3.78-2.31-6.07-2.41h-.23z" transform="translate(-10.71 -20.9)"/><circle cx="978.79" cy="775.6" r="197.5" fill="url(#Unbenannter_Verlauf_4)"/><path class="cls-10" d="M1145.29 880.23v6c-9.49 5.22-19.84 7.09-30.82 8.34 5-17.33 1.34-31.51-13.49-41.61a32.54 32.54 0 0 0-38.34 1.15c-14 10.77-17.28 24.92-11.23 41.6L927.23 894c1.29-.92 2.55-1.9 3.78-2.92a67.93 67.93 0 0 0 18.15-23.53q6.54-13.85 6.54-31.62 0-15-5-26.06a64 64 0 0 0-13.08-19.12 86.69 86.69 0 0 0-8.58-7.51h7.23c6.79.46 13.64.48 20.36 1.45 21.11 3.06 39.31 13 56.61 24.82 4.61 3.16 8.56 5.7 15.24 5.14 11.33-.94 23 .43 34.35 1.67 22.56 2.46 44.62 7.15 65.38 16.77 1.5.7 3 1.48 4.49 2.15 5.23 2.33 9.78 5 7.9 12.1a7.28 7.28 0 0 0 .87 5.32c5 7.51 2.21 15 .45 22.57-.15.65-.39 1.27-.52 1.92a7.5 7.5 0 0 0 .1 1.44z" transform="translate(-10.71 -20.9)"/><path class="cls-10" d="M1055.13 881.79c.08 15.11 12.77 27.65 27.76 27.44a28.23 28.23 0 0 0 27.44-28c-.09-15.09-12.6-27.23-28-27.17s-27.33 12.18-27.2 27.73zM800.67 855.2a.06.06 0 0 0-.11 0l-1.71 33.54a4.61 4.61 0 0 0 1.78 3.92c.9.69 2 1.44 3.23 2.23.87.56 1.82 1.13 2.86 1.73a93.07 93.07 0 0 0 14.28 6.46 128.71 128.71 0 0 0 19.32 5.27q2.51.49 5.12.88a126.07 126.07 0 0 0 18.39 1.27 113.79 113.79 0 0 0 33.87-4.88A80.06 80.06 0 0 0 921.23 894c1.29-.92 2.55-1.9 3.78-2.92a67.93 67.93 0 0 0 18.15-23.53q6.54-13.84 6.54-31.62 0-15-5-26.06a64 64 0 0 0-13.08-19.12 86.69 86.69 0 0 0-8.58-7.51 91.65 91.65 0 0 0-9.86-6.55q-10.35-6-21.08-10.93T871 755.9a115.83 115.83 0 0 1-18.44-10.73 50 50 0 0 1-13-13.47q-4.89-7.62-4.88-18.15a36.81 36.81 0 0 1 2.54-13.67 29.71 29.71 0 0 1 7.61-11.12 37.48 37.48 0 0 1 12.88-7.52 54 54 0 0 1 18.35-2.83 68.66 68.66 0 0 1 20.4 2.83 98.57 98.57 0 0 1 15.71 6.25c4.42 2.28 8.17 4.33 11.22 6.15a4.61 4.61 0 0 0 7-3.81l.76-21.27a4.64 4.64 0 0 0-2-4 58 58 0 0 0-5.61-3.23 89 89 0 0 0-13.37-5.46 115.18 115.18 0 0 0-16-3.91 100 100 0 0 0-16.89-1.46 102.54 102.54 0 0 0-30.55 4.39 71.69 71.69 0 0 0-24.4 12.78 58.1 58.1 0 0 0-16 20.79q-5.76 12.4-5.76 28.21 0 15.42 5 26.45a65.94 65.94 0 0 0 13 19.22 88.16 88.16 0 0 0 18.15 14.25 226.05 226.05 0 0 0 20.89 11l1.52.71 19.46 9a114 114 0 0 1 18.25 10.54 49.28 49.28 0 0 1 12.88 13.37q4.88 7.62 4.88 18.35a42.85 42.85 0 0 1-3.51 17.76 35.78 35.78 0 0 1-10 13.18 47.27 47.27 0 0 1-15.62 8.3 61.9 61.9 0 0 1-15 2.76c-1.64.11-3.32.16-5 .16H864a84.38 84.38 0 0 1-24.06-3.4A126.46 126.46 0 0 1 821.1 871a122.89 122.89 0 0 1-12.62-7 4.33 4.33 0 0 1-.37-.27 29.59 29.59 0 0 1-7.44-8.53z" transform="translate(-10.71 -20.9)"/></svg>